<svg xmlns="http://www.w3.org/2000/svg" width="343.007" height="303.127" viewBox="0 0 343.007 303.127">
  <g id="Group_775" data-name="Group 775" transform="translate(-408.632 433.061) rotate(-90)">
    <path id="Path_1009" data-name="Path 1009" d="M235.267,417.484a4.077,4.077,0,1,1,2.47-5.209A4.076,4.076,0,0,1,235.267,417.484Z" transform="translate(14.934 7.541)" fill="rgba(86,30,30,0.47)"/>
    <path id="Path_1010" data-name="Path 1010" d="M379.213,396.061a4.077,4.077,0,1,1,2.47-5.209A4.076,4.076,0,0,1,379.213,396.061Z" transform="translate(38.283 260.489)" fill="rgba(86,30,30,0.47)"/>
    <path id="Path_1011" data-name="Path 1011" d="M488.691,452a14.49,14.49,0,0,1-6.241-1.248,13.275,13.275,0,0,1-8.523-12.183,23.1,23.1,0,0,1,4.936-14.678c3.021-4.029,7.288-5.4,12.187-5.079a2,2,0,0,1,1.114.315c.471.4,1.078.912,1.156,1.446.105.722-.667,1.062-1.322,1.148-.91.12-1.836.127-2.756.164a10.308,10.308,0,0,0-8.591,4.837,20.086,20.086,0,0,0-3.567,11.1A9.759,9.759,0,0,0,481,446.07c6.692,5.087,16.919,2.769,19.565-5.952a7.955,7.955,0,0,0-5.89-10.006,3.71,3.71,0,0,0-3.9,1.292,3.365,3.365,0,0,0-.172,4.363c.3.419.819.689,1.1,1.118a2.313,2.313,0,0,1,.474,1.392c-.1.722-.757,1.009-1.452,1.1a3.476,3.476,0,0,1-2.611-.637,6.111,6.111,0,0,1-2.138-6,7.864,7.864,0,0,1,9.081-5.73c7.424,1.211,10.491,9.279,8.368,14.735A15.36,15.36,0,0,1,488.691,452Z" transform="translate(-113.871 -10.139)" fill="rgba(86,30,30,0.47)"/>
    <path id="Path_1012" data-name="Path 1012" d="M528.865,587.839c5.274,3.51,5.915,8.276,4.37,13.633a34.58,34.58,0,0,1-7.889,13.78c-2.232,2.444-4.764,4.623-7.236,6.838a40.671,40.671,0,0,0-5.891,6.161,16.828,16.828,0,0,0-3.025,6,21.446,21.446,0,0,0-.428,4.215,4.639,4.639,0,0,0,1.345,3.21c1.076,1.224,2.081,1.417,3.435.488a23.165,23.165,0,0,0,3.023-2.47c1.7-1.652,3.323-3.389,4.975-5.092a34.166,34.166,0,0,1,8.658-6.767,17.693,17.693,0,0,1,4.629-1.737c4.2-.83,7.308,2.3,6.438,6.494a32.243,32.243,0,0,1-1.935,5.7c-1.042,2.518-2.329,4.934-3.36,7.456a15.46,15.46,0,0,0-1.3,9.2c.708.386,1.531.8,2.319,1.277a.8.8,0,0,1-.021,1.235A3.318,3.318,0,0,1,532,656.73a7.4,7.4,0,0,1-1.021-2.967,14.284,14.284,0,0,1,1.029-6.975c.88-2.325,1.9-4.6,2.892-6.881.613-1.414,1.331-2.784,1.905-4.211a19.857,19.857,0,0,0,1.066-3.382c.361-1.758-.66-2.739-2.475-2.343a11.345,11.345,0,0,0-2.956,1.151,34.524,34.524,0,0,0-7.883,6.044c-1.591,1.6-3.125,3.255-4.755,4.811a32.054,32.054,0,0,1-3.788,3.223c-3.613,2.5-7.439,1.589-9.686-2.226a10.424,10.424,0,0,1-1.371-6.154,20.03,20.03,0,0,1,3.057-9.01,32.983,32.983,0,0,1,6.189-7.31c1.843-1.677,3.747-3.288,5.579-4.978a38.172,38.172,0,0,0,9.151-13,14.008,14.008,0,0,0,1.319-6.561,5.17,5.17,0,0,0-2.534-4.356c-1.235.766-1.42,2.021-1.927,3.054a46.554,46.554,0,0,1-9.677,13.534,17.512,17.512,0,0,1-5.231,3.637,8.218,8.218,0,0,1-6.23.38,6.236,6.236,0,0,1-4.119-7.034,9.473,9.473,0,0,1,1.789-4.224,37.649,37.649,0,0,1,3.265-3.747,41.957,41.957,0,0,1,19.9-10.062,12.621,12.621,0,0,0,.753-1.418,73.624,73.624,0,0,0,4.694-30.715,14.407,14.407,0,0,0-1.879-6.435,7.3,7.3,0,0,0-8.4-3.814,14.555,14.555,0,0,0-5.829,2.549,55.509,55.509,0,0,0-6.281,5.219,63.581,63.581,0,0,0-17.967,35.225,20.248,20.248,0,0,0-.221,3.188c0,1.705.171,1.836,2.308,2.392-1.67,1.509-3.231,1.273-3.63-.646a15.438,15.438,0,0,1-.257-3.887,49.5,49.5,0,0,1,3.641-15.875,66.337,66.337,0,0,1,13.393-21.248,42.542,42.542,0,0,1,7.824-6.694,18.376,18.376,0,0,1,6.862-2.812,10.069,10.069,0,0,1,10.909,4.92,17.35,17.35,0,0,1,2.349,7.4,73.632,73.632,0,0,1-.373,15.271,71.407,71.407,0,0,1-4.192,16.871C529.073,586.956,529.01,587.3,528.865,587.839Zm-5.013,3.552a6.175,6.175,0,0,0-1.214.009,39.7,39.7,0,0,0-15.525,8.887A16.8,16.8,0,0,0,504.5,603.6c-.908,1.468-1.25,3.115-.109,4.641.941,1.258,2.919,1.49,4.911.734a4.748,4.748,0,0,0,.968-.433,29.05,29.05,0,0,0,3.18-2.232A41.094,41.094,0,0,0,523.852,591.391Z" transform="translate(-118.782 -50.927)" fill="rgba(86,30,30,0.47)"/>
    <g id="Group_774" data-name="Group 774" transform="translate(129.934 429.484)">
      <path id="Path_1013" data-name="Path 1013" d="M319.468,466.373a14.951,14.951,0,0,0-.909,1.536c-1.569,3.542-4.63,4.966-8.149,5.552a10.9,10.9,0,0,1-5.96-.535,4.952,4.952,0,0,1-2.454-1.953,3.25,3.25,0,0,1-.336-3.061,7.143,7.143,0,0,1,2.24-3.155,14.723,14.723,0,0,1,7.756-3.251c.939-.082,1.879-.163,2.753-.238.353-.8-.09-1.23-.476-1.654a14.531,14.531,0,0,0-5.6-3.691,34.065,34.065,0,0,0-10.36-2.3,50.844,50.844,0,0,0-21.913,3.646,38.652,38.652,0,0,0-14.74,10.3c-.383.426-.69.921-1.148,1.541,1.676.641,3.208.358,4.693.369a12.182,12.182,0,0,1,4.532.749,2.135,2.135,0,0,1,.982,3,9.171,9.171,0,0,1-.864,1.123c-.294.362-.6.712-1.012,1.195,2.977,1.232,5.93,1.057,8.853.676,3.4-.444,6.779-1.062,10.162-1.631a4.29,4.29,0,0,1,3.983,1.01,6.517,6.517,0,0,0,4.45,1.822,10.01,10.01,0,0,1,4.033,1.228,16.224,16.224,0,0,0,7.826,2.026c5.219.218,10.376.945,15.549,1.56a6.924,6.924,0,0,1,2.031.58,2.008,2.008,0,0,1,.5,3.485,14.2,14.2,0,0,1-2.71,1.659c-1.79.923-3.62,1.766-5.417,2.675-.509.258-.959.631-1.878,1.247a13.916,13.916,0,0,1,1.427.894c2,1.665,2.5,3.75.8,6.3-.45.669-.826,1.387-1.18,1.99a4.359,4.359,0,0,0,2.589,2.547c2.008,1.01,4.074,1.9,6.113,2.854a35.19,35.19,0,0,1,3.521,1.691,2.581,2.581,0,0,1,.419,4.444c-.876.792-1.9,1.42-2.818,2.165-1.468,1.189-1.606,1.925-.409,3.242a24.815,24.815,0,0,0,3.605,3.416c2.582,1.887,5.234,3.694,7.965,5.356,4.051,2.465,8.2,4.77,12.3,7.157a17.675,17.675,0,0,1,2.382,1.541,2.477,2.477,0,0,1-.14,3.986,13.451,13.451,0,0,1-3.164,1.574,17.649,17.649,0,0,0-5.227,2.973,3.534,3.534,0,0,0-1.515,4.017,4.531,4.531,0,0,1-.768,4.372,3.447,3.447,0,0,0-.547,1.975,35.834,35.834,0,0,0,.136,3.909,5.067,5.067,0,0,1-2.093,4.633,12.69,12.69,0,0,1-5.043,2.522c-1.494.346-2.992.673-4.639,1.042a43.508,43.508,0,0,1-5.946,10.136c.148,1.084.947,1.281,1.468,1.708A33.325,33.325,0,0,1,337.3,598.629a32.238,32.238,0,0,1,.375,3.881c.056.946,0,1.9,0,2.847,0,.82,0,1.641,0,2.346.75.908,1.632.594,2.415.549a23.679,23.679,0,0,1,9.115,1.138c9.059,3.1,14.452,9.569,16.96,18.62,1.312,4.733.725,9.405-.722,14.01-.284.9-.659,1.776-1.067,2.864.711.365,1.4.756,2.111,1.078a19.3,19.3,0,0,1,8.626,7.193,49.519,49.519,0,0,1,3.56,6.547c1.595,3.6,1.447,7.393.728,11.182-.108.573-.274,1.135-.455,1.87a10.607,10.607,0,0,0,1.417.981,19.262,19.262,0,0,1,6.724,5.711,17.319,17.319,0,0,1,3.491,13.712c-.1.7-.2,1.4-.292,2.033.436,1.2,1.544,1.527,2.38,2.154a22.043,22.043,0,0,1,7.717,9.56,22.9,22.9,0,0,1,1.092,12.24c-.184,1.153-.484,2.288-.709,3.327.778.955,1.765.93,2.675,1.156a22.157,22.157,0,0,1,16.583,27.25,29.822,29.822,0,0,1-11.643,17.774,17.966,17.966,0,0,1-9.941,3.392,28.386,28.386,0,0,1-15.121-3.154c-7.529-3.968-11.73-10.15-12.292-18.684-.116-1.768.023-3.554.04-5.33.007-.7,0-1.391,0-2.13l-8.782-2.648a20.837,20.837,0,0,0-1.583,1.515c-2.894,3.327-6.718,4.824-10.932,5.34-7.513.921-13.745-1.714-18.793-7.245-1.036-1.135-1.895-2.431-2.835-3.652-.424-.551-.849-1.1-1.342-1.741-11.709,3.556-21.272.474-29.021-9.286-1.955,0-4.2.041-6.439-.008a29.959,29.959,0,0,1-24.68-13.927A19.586,19.586,0,0,1,263.9,696.1c.176-.922.366-1.842.534-2.682-.945-.922-1.968-.573-2.813-.379-4.376,1.009-8.5.007-12.478-1.609a34.276,34.276,0,0,1-10.961-7.162c-4.285-4.143-6.753-9.1-6.6-15.191a14.555,14.555,0,0,0-.206-2.1c-.01-.085-.136-.156-.318-.351-1.01.484-2.062,1-3.122,1.493a29.6,29.6,0,0,1-22.76.343,26.368,26.368,0,0,1-12.8-13.315,32.153,32.153,0,0,1-2.346-19.8,3.384,3.384,0,0,0,.034-.7,1.361,1.361,0,0,0-.09-.329c-8.987-4.384-11.21-8.225-10.732-18.764-1.682-.32-3.426-.549-5.115-.99-8.016-2.1-13.9-6.71-16.208-14.873a23.315,23.315,0,0,1,1.442-15.991c2.443-5.548,6.357-9.964,10.9-13.876.715-.616,1.458-1.2,2.167-1.781-.308-1.41-1.621-1.391-2.473-1.909a22.006,22.006,0,0,1-10.445-14.2c-1.028-4.289-.535-8.476.435-12.67,1.55-6.7,5.615-11.653,10.97-15.7.472-.357,1-.64,1.492-.968s.957-.654,1.41-.965c-.6-1.581-.83-1.738-1.915-1.274-.872.373-1.723.793-2.577,1.206-1.774.858-3.416.872-4.857-.686-.127-.138-.417-.125-.816-.231a25.131,25.131,0,0,0-3.569,4.682,77.906,77.906,0,0,0-6.01,11.694,154.058,154.058,0,0,0-10.608,35.7c-.51,3.031-.666,6.123-.963,9.19a90.62,90.62,0,0,0-.48,12.793c.54,12.019,2.068,23.855,6.849,35.045A47.065,47.065,0,0,0,159.175,644.8c.908.165,1.16-.442,1.484-.907a23.692,23.692,0,0,1,5.467-5.558,11.771,11.771,0,0,1,4.506-2.03,6.092,6.092,0,0,1,7.668,5.782c.406,7.783-7.31,12.125-12.4,10.54-1.468-.458-2.931-.933-4.625-1.473a8.174,8.174,0,0,0-.936,1.6,30.026,30.026,0,0,0-.134,19.542,19.18,19.18,0,0,0,6.84,9.312,14.291,14.291,0,0,0,6.163,2.62,64.76,64.76,0,0,0,8.116.854c2.961.155,5.934.068,8.9.112a26.909,26.909,0,0,1,12.358,2.793,6.874,6.874,0,0,0,3.439.678,33.811,33.811,0,0,1,10.164,1.442c8.514,2.515,14.236,9.036,15.325,18.936a75.983,75.983,0,0,1-.211,13.148c-.128,2.01-.239,4.024-.248,6.036a12.111,12.111,0,0,0,.406,2.8c.716,3.018,2.412,4.152,5.428,3.726a24.183,24.183,0,0,1,3.168-.357c3.678-.028,6.079,1.673,7.178,5.171a16.508,16.508,0,0,1,.636,3.829c.109,1.654-.08,3.332.075,4.98a21.66,21.66,0,0,0,.918,4.865c1.02,3.028,3.661,4.344,6.791,3.586a13.6,13.6,0,0,0,2.022-.676,17.924,17.924,0,0,0,1.59-.852,26.963,26.963,0,0,1,.873-2.727,7.5,7.5,0,0,1,1.286-2.1,2.291,2.291,0,0,1,3.76.855,3.127,3.127,0,0,1,.1,2.423,13.648,13.648,0,0,1-1.111,2.2c-.458.687-1.14,1.262-1.074,2.172a6.022,6.022,0,0,0,1.241,3.644c1.588,1.839,3.551,2.806,6,2.054,1.464-.45,2.868-1.1,4.3-1.668,1.978-.787,3.938-1.619,5.931-2.363a8.831,8.831,0,0,1,7.836.973c.819.476,1.567,1.086,2.412,1.508a47.617,47.617,0,0,0,4.519,2.035,8.1,8.1,0,0,0,7.2-.286,1.6,1.6,0,0,1,2.206.347,2,2,0,0,1-.3,2.589,6.118,6.118,0,0,1-3.512,1.552,17.442,17.442,0,0,1-10.295-2.074,30.022,30.022,0,0,1-3.358-2,7.054,7.054,0,0,0-7.094-.645c-1.973.8-3.9,1.725-5.845,2.6a12.143,12.143,0,0,1-5.125,1.31c-4.186-.042-7.281-1.822-9.065-5.683-.294-.636-.523-1.3-.856-2.141-.72.135-1.388.24-2.046.388a11.48,11.48,0,0,1-7.323-.417,7.447,7.447,0,0,1-3.647-3.256,13.84,13.84,0,0,1-1.882-6.056c-.11-2.132-.078-4.273-.229-6.4a18.077,18.077,0,0,0-.662-3.828,2.881,2.881,0,0,0-2.984-2.1c-1.42,0-2.841.148-4.259.27-3.907.334-7.363-1.795-8.464-6.474-.777-3.3-.471-6.6-.307-9.911.17-3.432.409-6.862.506-10.3a21.017,21.017,0,0,0-1.427-7.656,15.879,15.879,0,0,0-7.1-8.6,22.888,22.888,0,0,0-6.98-2.541,17.121,17.121,0,0,0-3.134-.03c4.88,6.286,7.528,13.027,6.254,20.744-1.264,7.654-5.171,13.668-12.116,17.464a13.081,13.081,0,0,0-.291,1.457c-.475,5.687-3.012,10.4-6.819,14.523a30.985,30.985,0,0,1-9.67,7.157,106.366,106.366,0,0,1-17.11,5.873,2.9,2.9,0,0,1-2.666-.521,1.594,1.594,0,0,1,.039-2.466,5.038,5.038,0,0,1,1.612-.688,91.861,91.861,0,0,0,14.193-4.512,27.9,27.9,0,0,0,12.851-9.769,23.2,23.2,0,0,0,3.741-8.386,4.578,4.578,0,0,0-.05-1.139c-1.071-.045-2.107-.054-3.135-.146-.464-.042-.905-.287-1.369-.375a7.272,7.272,0,0,1-4.124-2.624,5.449,5.449,0,0,1,1.408-8.281,5.85,5.85,0,0,1,5.148-.145,8.679,8.679,0,0,1,4.265,3.629c.442.692.8,1.439,1.278,2.322a17.15,17.15,0,0,0,1.825-1.1c6.1-4.813,9.452-14.393,6.4-22.488a22.382,22.382,0,0,0-6.963-10.111,4.726,4.726,0,0,0-3.259-1.131,63.642,63.642,0,0,0-8.516.46c-2.794.481-5.653.568-8.474.906-2.584.31-5.149.787-7.735,1.078a96.927,96.927,0,0,1-10.96,1.009c-10.579-.012-18.763-4.383-24.43-13.312a61.339,61.339,0,0,1-8.081-20.012,121.837,121.837,0,0,1-2.653-22.931,109.561,109.561,0,0,1,.922-15.612c1.412-11.9,3.891-23.611,6.429-35.307,1.007-4.64,1.555-9.343,2.176-14.041a139.4,139.4,0,0,1,6.163-25.9,144.418,144.418,0,0,1,8.133-19.7c.358-.7.627-1.453.912-2.122-.662-.638-1.034-.163-1.351.086-1.586,1.245-3.121,2.555-4.712,3.8-.934.727-1.918,1.4-2.916,2.032a5.584,5.584,0,0,1-1.61.72c-1.965.494-3.386-.816-2.917-2.765a12.764,12.764,0,0,1,1.226-2.933c1-1.884,2.1-3.716,3.138-5.582a51.912,51.912,0,0,0,4.383-9.7,4.721,4.721,0,0,0-.146-3.769,18.867,18.867,0,0,1-.83-3.045,11.071,11.071,0,0,0-.846-2.3,2.993,2.993,0,0,1,.235-3.356,31.1,31.1,0,0,1,2.694-3.3c1.913-2.111,3.889-4.163,5.807-6.269.547-.6.983-1.3,1.591-2.117-.822-.5-1.531-.87-2.177-1.331a2.791,2.791,0,0,1-1.268-3.383,8.048,8.048,0,0,0,.211-4.536,2.955,2.955,0,0,1,1.254-3.136c1.838-1.294,3.732-2.513,5.637-3.709,2-1.254,4.22-2.157,5.975-3.673.142-.847-.458-1.065-.91-1.418a29.076,29.076,0,0,1-3.02-2.48,2.459,2.459,0,0,1,1.322-4.328,11.363,11.363,0,0,1,2.123-.175q10.138-.367,20.276-.723a7.132,7.132,0,0,0,1.769-.147,13.815,13.815,0,0,1,8.057.166,31.478,31.478,0,0,0,10.237.862,7.957,7.957,0,0,0,2.811-.328c2.161-.949,3.553-.068,4.946,1.491a27.85,27.85,0,0,0,3.458,3.061,10.055,10.055,0,0,0,9.727,1.687,34.739,34.739,0,0,0,3.37-1.114c3.912-1.634,8.041-1.941,12.2-2.04,2.794-.067,3.594.652,4.351,3.562a6.6,6.6,0,0,0,.334.789c1.761,1.365,4,1.587,6.084,1.969.32-.207.59-.287.7-.465,3.805-6.33,9.436-10.594,15.937-13.739a50.607,50.607,0,0,1,20.171-5.113,43.651,43.651,0,0,1,15.107,1.556c.9.284,1.81.568,2.683.93,4.955,2.058,7.383,4.431,9.726,9.565,3.175,1.031,5.327,3.5,7.248,6.283a47.482,47.482,0,0,0,3.911,5.047,13.337,13.337,0,0,0,9.1,4.336,11.369,11.369,0,0,0,5.844-1.206,3.571,3.571,0,0,0,.9-5.934,13.743,13.743,0,0,0-4.04-2.865c-.539-.234-1.122-.364-1.672-.579a1.97,1.97,0,0,1-1.4-1.83,1.931,1.931,0,0,1,2.007-1.624,5.141,5.141,0,0,1,1.744.246,15.812,15.812,0,0,1,6.6,4.687c3.081,3.86,2.084,8.939-2.321,11.146-5.152,2.582-10.334,2.145-15.328-.585a22.141,22.141,0,0,1-7.173-6.8c-.833-1.154-1.571-2.377-2.431-3.509A5.771,5.771,0,0,0,319.468,466.373ZM148.216,525.207l.459.46c.567-.4,1.161-.769,1.7-1.206,2.761-2.244,5.5-4.513,8.262-6.756a20.561,20.561,0,0,1,2.294-1.677c2.217-1.339,3.2-1.221,5.067.509.591.547,1.16,1.117,1.711,1.648.908-.425,1.648-.8,2.411-1.126,3.03-1.291,4.759-.876,6.9,1.652.68.8,1.111,1.844,2.178,2.289a7.166,7.166,0,0,0,2.906-2.545c1.3-1.686,2.487-3.466,3.739-5.193a27.532,27.532,0,0,1,2.153-2.817,3.75,3.75,0,0,1,4.255-.923,11.989,11.989,0,0,1,2.226,1.1c2.219,1.374,3.019.95,4.658-.66,2.115-2.078,4.251-4.136,6.383-6.2a26.659,26.659,0,0,1,2.082-1.935,4.86,4.86,0,0,1,4.7-.843,8.389,8.389,0,0,1,1.327.512,5.676,5.676,0,0,0,5.133.3,4.27,4.27,0,0,1,4.344.7c.834.563,1.491,1.433,2.665,1.711a18.517,18.517,0,0,0,.68-1.761c1.024-3.771,2.016-7.55,3.035-11.322.494-1.83.993-3.659,1.544-5.472a4.283,4.283,0,0,1,4.424-3.387,8.349,8.349,0,0,0,2.812-.245,10.481,10.481,0,0,1,6.274.014,41.372,41.372,0,0,0,7.175,1.424c1.962-1.76,3.772-3.461,5.667-5.061,1.936-1.635,4.366-2.639,6.447-4.816a66.464,66.464,0,0,0-8.144-.62,18.405,18.405,0,0,1-6.245-1.205c-2.33-.85-4.285-2.036-4.639-4.792-.011-.088-.167-.157-.322-.292a15.992,15.992,0,0,1-3.088.374,20.565,20.565,0,0,0-8.3,1.629c-1,.358-2.008.712-3.025,1.029-3.634,1.135-7.207,1.227-10.663-.655-.378-.206-.8-.563-1.246-.126-.06.117-.169.227-.151.31a8.864,8.864,0,0,0,.362,1.361,29.993,29.993,0,0,1,1.925,14.992c-.233,1.874-.136,3.788-.235,5.682a1.641,1.641,0,0,1-1.341,1.459,1.759,1.759,0,0,1-1.99-1.119,11.387,11.387,0,0,1-.311-2.8c.046-2.014.16-4.029.33-6.036a24.159,24.159,0,0,0-2.119-11.419,10.507,10.507,0,0,0-2.987-4.3c-2.846,2.025-5.538,3.936-8.22,5.859a4.5,4.5,0,0,0-.608.8c.192,1.065.41,2.337.65,3.6.916,4.836,1.161,9.656-.523,14.385-.794,2.23-1.7,4.421-2.614,6.607a7.1,7.1,0,0,1-1.1,1.795,1.251,1.251,0,0,1-1.6.364,2.151,2.151,0,0,1-1.021-1.291,5.786,5.786,0,0,1,.366-2.406c.678-1.9,1.46-3.754,2.218-5.619a16.861,16.861,0,0,0,1.242-6.239,23.27,23.27,0,0,0-1.323-9.095c-.588.314-1.017.5-1.4.755a29.863,29.863,0,0,0-8.333,8.653A45.183,45.183,0,0,1,175.98,498.8a43.621,43.621,0,0,0-9.878,8.636,5.828,5.828,0,0,1-.757.747,1.761,1.761,0,0,1-2-.029,1.868,1.868,0,0,1-.676-1.893,4.323,4.323,0,0,1,.653-1.254,43.512,43.512,0,0,1,3.152-3.368,82.629,82.629,0,0,1,9.794-7.672,33.788,33.788,0,0,0,7.565-7.464,6.731,6.731,0,0,0,.6-1.238,8.834,8.834,0,0,0-4.629-.805,21.809,21.809,0,0,0-6.842,1.765c-.945.488-1.942.882-2.932,1.274a5.676,5.676,0,0,1-1.365.334,1.684,1.684,0,0,1-1.277-2.947,2.4,2.4,0,0,1,.556-.437,77.73,77.73,0,0,1,7.234-2.909,17.456,17.456,0,0,1,9.822-.13,18.622,18.622,0,0,0,2,.341c1.27-1.418,2.414-2.78,3.649-4.052,1.217-1.255,2.527-2.421,3.891-3.715a14.58,14.58,0,0,0-7.128-.086c-1.957.457-3.9,1-5.849,1.472a11.448,11.448,0,0,1-2.079.357,1.355,1.355,0,0,1-1.377-.918,1.7,1.7,0,0,1,.4-1.947,8.552,8.552,0,0,1,2.2-1.1c2.047-.584,4.109-1.154,6.2-1.537a22.348,22.348,0,0,1,9.5-.083c1.02.253,2.038.514,2.91.734,5.55-3.117,7.17-4.34,8.62-6.587a55.887,55.887,0,0,1-13.771-1.907,6.2,6.2,0,0,0-2.1.141c-.7.086-1.4.307-2.1.33-4.736.153-9.441.906-14.2.713-1.539-.063-3.085.025-4.626.072a15.185,15.185,0,0,0-1.593.246c.591.521.925.826,1.272,1.118a14.156,14.156,0,0,1,1.357,1.131,2.5,2.5,0,0,1,.038,3.794,17.4,17.4,0,0,1-3.059,2.41c-2.011,1.25-4.137,2.315-6.15,3.563-1.384.858-2.984,1.48-3.993,3.063.894,1.582.251,3.184-.122,4.886.492.224.919.387,1.316.6,2.354,1.288,2.959,2.967,1.678,5.257a21.876,21.876,0,0,1-2.728,3.71c-1.567,1.778-3.271,3.436-4.891,5.168-.881.942-1.71,1.932-2.513,2.844.331,1.1.632,1.99.86,2.895a15.035,15.035,0,0,0,.608,2.747,9.007,9.007,0,0,1,.137,6.911,57.983,57.983,0,0,1-4.037,9.083Q148.769,524.137,148.216,525.207ZM284.125,657.032a20.607,20.607,0,0,1,2.22,8.286,19.239,19.239,0,0,1-2.145,10.313,5.572,5.572,0,0,0-.105,5.414c.522,1.062.973,2.159,1.5,3.216a16.5,16.5,0,0,0,8.328,7.933c8.648,3.762,17.061,3.3,25.088-1.775a36.792,36.792,0,0,0,8.676-7.842,27.158,27.158,0,0,0,6.431-18.377c-.153-7.087-2.894-12.792-8.813-16.956-3.083-2.169-6.516-3.273-10.122-4.318-1.078.724-2.127,1.489-3.232,2.159-5.807,3.513-11.915,5.768-18.872,4.461a9.936,9.936,0,0,0-1.794-.015C287,652.412,285.989,653.454,284.125,657.032Zm-49.652-35.341c-1.2.568-2.166,1.013-3.121,1.478a16.305,16.305,0,0,1-7.217,1.573,15.963,15.963,0,0,1-6.906-1.351c-2.891-1.348-5.785-2.694-8.623-4.149a3.109,3.109,0,0,0-3.633.216c-1.03.792-2.068,1.585-3.015,2.472a31.761,31.761,0,0,0-4.805,6.135,24.465,24.465,0,0,0-3.323,19.72,27.22,27.22,0,0,0,5.9,11.977,19,19,0,0,0,11.063,6.6,50.527,50.527,0,0,0,7.789.359,16.254,16.254,0,0,0,7.828-1.992c1.468-.765,2.889-1.62,4.35-2.4a5.566,5.566,0,0,0,2.7-3.128,29.1,29.1,0,0,1,11.306-13.781c.772-.529,1.521-1.092,2.392-1.719.041-1.916.069-3.8.124-5.685a17.926,17.926,0,0,0-2.681-9.437,11.245,11.245,0,0,0-4.187-4.25A25.268,25.268,0,0,0,234.473,621.691Zm71.219-89.818a29.457,29.457,0,0,1,10.783,3.193,26.709,26.709,0,0,1,8.288,6.613,25.318,25.318,0,0,1,5.182,9.608c.955,3.592.729,7.24.755,11.141a28.324,28.324,0,0,0,4.268-1.213c2.887-1.343,2.9-1.939,2.629-4.332-.08-.705-.081-1.418-.122-2.128-.112-1.943.1-3.8,1.465-5.178a4.6,4.6,0,0,0-.087-.868c-.917-2.712.068-4.853,1.979-6.735a19.179,19.179,0,0,1,5.231-3.628,5.475,5.475,0,0,0,2.16-1.236c-2.253-1.314-4.31-2.469-6.322-3.7-4.247-2.588-8.532-5.121-12.674-7.868a42.393,42.393,0,0,1-5.079-4.425,9.763,9.763,0,0,1-1.558-1.93,4.707,4.707,0,0,1,.737-6.424c.65-.639,1.387-1.189,2.3-1.962-.714-.407-1.186-.719-1.692-.959-1.926-.91-3.874-1.773-5.791-2.7a11.722,11.722,0,0,1-3.913-3.022,3.985,3.985,0,0,1-.525-5.214c.506-.917,1.094-1.791,1.706-2.782-1.148-.947-2.188-1.721-3.128-2.6a2.6,2.6,0,0,1,.2-4.264A16.605,16.605,0,0,1,314.623,488c1.046-.553,2.127-1.042,3.162-1.614.238-.131.353-.486.591-.835a4.777,4.777,0,0,0-1.076-.407c-3.655-.312-7.311-.63-10.972-.878A14.405,14.405,0,0,1,300.476,483a20.82,20.82,0,0,0-7.4-2.212,3.977,3.977,0,0,1-2.547-1.135c-1.23-1.359-2.721-1.27-4.271-1.026-2.1.332-4.184.813-6.295,1.046-4.725.522-9.451.688-14.1-.613l-2.014-.563-3.63,2.446c8.786,7.543,7.86,6.842,11.629,15.274a.883.883,0,0,0,.328.076,10.184,10.184,0,0,0,1.017-.244,27.382,27.382,0,0,1,15.073-.232,23.4,23.4,0,0,1,13.12,8.575,31.916,31.916,0,0,1,5.593,12.159,22.255,22.255,0,0,1,.018,10.91C306.634,528.83,306.194,530.177,305.692,531.873Zm-59.915,67.364c.105-8.329-3.59-17.894-11.33-22.729-6.808-4.255-13.925-5.017-21.266-1.523a43.372,43.372,0,0,0-6.394,3.8,21.776,21.776,0,0,0-9.284,15.349,15.645,15.645,0,0,0,1.321,9.356,29.4,29.4,0,0,0,9.013,10.815,42.676,42.676,0,0,0,12.678,6.249,14.905,14.905,0,0,0,3.122.555,13.041,13.041,0,0,0,6.83-1.618,28.3,28.3,0,0,0,11.9-10.882C244.419,605.254,245.715,601.56,245.777,599.237Zm49.18,1.009c-3.134-.549-6.352.551-9.255,2.583a27.492,27.492,0,0,0-10.637,14.309A17.8,17.8,0,0,0,274.959,628a26.752,26.752,0,0,0,9.391,13.921,19.9,19.9,0,0,0,12.22,4.2c6.255.053,11.583-2.345,16.2-6.306,6.642-5.7,8.466-13.148,7.24-21.545a13.785,13.785,0,0,0-.763-2.727,22.5,22.5,0,0,0-11.425-12.593A26.891,26.891,0,0,0,294.957,600.246ZM184.673,521.487c-.781.693-1.382,1.267-2.024,1.789-1.526,1.24-3.133,2.069-5.232,1.434a2.949,2.949,0,0,0-1.982.394,25.479,25.479,0,0,0-8.016,6.924,23.756,23.756,0,0,0-4.724,14.272,18.073,18.073,0,0,0,12.686,18.175,51.469,51.469,0,0,0,5.88,1.3,21.676,21.676,0,0,0,11.215-.741c8.77-2.79,14.583-8.563,17.132-17.486a16.249,16.249,0,0,0-2.209-14.244,22.58,22.58,0,0,0-6.846-6.631,31.79,31.79,0,0,0-10.1-4.264C188.615,522.019,186.734,521.81,184.673,521.487Zm73.5,168.176a36.972,36.972,0,0,0,4.565-.583c8.771-2.206,14.846-7.7,18.441-15.85,2.65-6,1.831-11.821-2.095-17.108a25.866,25.866,0,0,0-6.435-6.072,32.707,32.707,0,0,0-14.595-5.118,11.435,11.435,0,0,0-6.227.82c-7.783,3.578-13.545,9.058-15.787,17.625-1.745,6.665-.723,12.741,4.251,17.755a31.67,31.67,0,0,0,11.261,7.284A18.066,18.066,0,0,0,258.169,689.662Zm4.718-158.023a42.251,42.251,0,0,0-5.25.714,21.313,21.313,0,0,0-10.658,6.72c-4.644,5.222-7.274,14.1-2.842,22.131a26.117,26.117,0,0,0,15.13,12.694c6.583,2.149,12.878,1.373,18.5-2.885a54.955,54.955,0,0,0,5.338-4.672,17.8,17.8,0,0,0,4.963-9.626,22.341,22.341,0,0,0-.458-9.15,16.7,16.7,0,0,0-9.377-11.81A38.235,38.235,0,0,0,262.887,531.64Zm23.429,37.1c-1.668,1.436-3.172,2.755-4.7,4.043a25,25,0,0,1-9.294,5.064,19.9,19.9,0,0,1-8.763.9,30.583,30.583,0,0,1-15.11-6.622,16.925,16.925,0,0,0-1.742-1.141c-2.477,1.629-4.342,3.5-5.118,6.421.628.826,1.294,1.649,1.9,2.513,3.706,5.257,6,10.976,5.923,17.534a20.83,20.83,0,0,1-1.194,7.323,3.209,3.209,0,0,0,.916,3.84c.258.245.487.522.754.755a20.683,20.683,0,0,0,12.9,5.248,23.556,23.556,0,0,0,9.382-1.629c1.936-2.768,3.571-5.385,5.492-7.772a29.759,29.759,0,0,1,6.907-6.1c2.617-1.727,5.693-2.187,8.521-3.213,2.017-6.4,1.427-12.516-.683-18.612A17.116,17.116,0,0,0,286.316,568.745ZM221.654,506.3c-.324.363-.443.435-.464.528-1.1,4.832.206,9.115,3.006,13.048A3.127,3.127,0,0,0,227.9,521.1a27.356,27.356,0,0,1,8.432-.921c1.532.128,3.059.322,4.585.511,5.207.646,9.885,2.377,13.391,6.523.525.622,1.113,1.191,1.539,1.643a6.683,6.683,0,0,0,5.079-2.563c.562-.609,1.191-1.155,1.777-1.741a22.791,22.791,0,0,0,6.715-15.242,35.537,35.537,0,0,0-2.428-14.963,19.067,19.067,0,0,0-8.549-9.667,1.942,1.942,0,0,0-2.836.379c-1.824,2.271-4.218,2.371-6.783,1.792-1.268-.287-2.52-.644-3.788-.932a14.06,14.06,0,0,0-3.818-.725,60.122,60.122,0,0,0-6.387,1.074c-.379,1.222-.792,2.441-1.135,3.679-1.358,4.9-2.679,9.817-4.052,14.716a13.556,13.556,0,0,1-1.131,2.97,2.53,2.53,0,0,1-3.923.923C223.614,507.918,222.732,507.137,221.654,506.3ZM336.842,656.416a18.917,18.917,0,0,0,7.853-.207,24.421,24.421,0,0,0,14.492-10.168,20.4,20.4,0,0,0,3.515-16.189,21.912,21.912,0,0,0-11.314-15.535,18.621,18.621,0,0,0-10.934-2.42,38.324,38.324,0,0,0-12.908,3.634,20.43,20.43,0,0,0-2.153,1.24,2.548,2.548,0,0,0-1.31,2.357c.039.947.038,1.895.034,2.842-.027,6.059-1.305,11.736-5.083,16.657a7.357,7.357,0,0,0-.626,1.358,28.094,28.094,0,0,1,11.3,6.02A26.067,26.067,0,0,1,336.842,656.416ZM374.2,738.87c1.446-.118,2.748-.2,4.044-.342a9.891,9.891,0,0,0,1.724-.395c9.041-2.7,14.709-8.778,17.376-17.681a17.634,17.634,0,0,0-6.6-19.85,20.705,20.705,0,0,0-26.264,2.181,32.156,32.156,0,0,0-8.811,16.743,16.352,16.352,0,0,0,7.444,16.5A22.448,22.448,0,0,0,374.2,738.87ZM289.071,540.505c3.622,8.244,4.559,16.562-.246,24.742a58.054,58.054,0,0,1,5.1,6.472,64.783,64.783,0,0,1,3.39,7.854,30.568,30.568,0,0,0,11.876,1.018,16.852,16.852,0,0,0,9.529-4.324,26.424,26.424,0,0,0,7.076-10.918,21.189,21.189,0,0,0-6.714-24.019c-7.379-6.032-15.715-7.24-24.715-4.432A8.989,8.989,0,0,0,289.071,540.505Zm-76.27-5.51c.1.513.123.752.193.977a22.262,22.262,0,0,1-1.087,16.281,36.667,36.667,0,0,1-1.941,3.793,5.324,5.324,0,0,0-.681,4.048,16.525,16.525,0,0,0,4.464,8.336,3.756,3.756,0,0,0,3.838,1.208c6.464-1.449,12.439.018,18.081,3.238.906.516,1.776,1.1,2.491,1.539l5.7-6.481c-1.074-1.808-2.324-3.677-3.335-5.667a19.912,19.912,0,0,1-2.419-10.974c.6-6.335,2.834-11.979,7.756-16.28,1.423-1.244,2.963-2.354,4.459-3.515.535-.414,1.1-.795,1.679-1.216a14.235,14.235,0,0,0-8.685-5.408,38.4,38.4,0,0,0-8.824-.832,28.438,28.438,0,0,0-17.734,6.316A13.066,13.066,0,0,0,212.8,534.995Zm-17.1,71.244c-4.017-9.681-2.333-21.081,7.828-29.953a13.59,13.59,0,0,0-1.133-1.737,19.007,19.007,0,0,0-7.327-4.891,7.065,7.065,0,0,0-4.159-.4,23.972,23.972,0,0,1-4.932.49c-2.712-.054-5.419-.34-8.341-.543a37.488,37.488,0,0,0-11.423,10.219,23.23,23.23,0,0,0-5.264,15.5,15.313,15.313,0,0,0,2.842,8.644c4.436,6.15,10.786,8.173,18.023,8.086a21.53,21.53,0,0,0,4.209-.658A18.985,18.985,0,0,0,195.7,606.239Zm-38.037,42.486c-.415-.482-.625-.768-.876-1.013A54.081,54.081,0,0,1,142.9,624.47a93.749,93.749,0,0,1-3.241-14.9c-.323-2.356-.652-4.71-1.082-7.82-.476,1.879-.807,3.005-1.042,4.151-.426,2.087-.869,4.174-1.174,6.28-.831,5.739-1.888,11.465-2.316,17.237a110.56,110.56,0,0,0,1.32,27.616,67.961,67.961,0,0,0,7.12,21.1,31.513,31.513,0,0,0,6.848,8.558,20.609,20.609,0,0,0,10.866,4.85,48.6,48.6,0,0,0,12.742-.143c5.393-.619,10.75-1.553,16.121-2.351a48.269,48.269,0,0,0-5.965-.322,62.582,62.582,0,0,1-9.549-.683c-7.569-1.214-12.742-5.5-15.919-12.221-3.151-6.664-3.456-13.7-1.811-20.833C156.293,652.929,157.006,650.923,157.659,648.725Zm218.135,94.033a3.625,3.625,0,0,0-1.1,2.771,40.758,40.758,0,0,0,.032,4.969c.574,5.421,2.762,10.014,7.321,13.237a24.521,24.521,0,0,0,16.729,4.64,13.3,13.3,0,0,0,7.249-2.623c6.953-5.529,11.118-12.521,10.837-21.664a17.832,17.832,0,0,0-17.972-17.058,32.14,32.14,0,0,1-9.463,10.759C385.283,740.8,380.526,742.03,375.795,742.758Zm-13.585-94.195c-6.38,7.72-14.038,12.514-24.469,11.883-.013,2.038.059,3.918-.058,5.785a36.992,36.992,0,0,1-.685,5.625,53.621,53.621,0,0,1-1.783,5.749c-.6,1.747-1.993,3.14-2.54,5.17a22.513,22.513,0,0,1,10.22,6.49,38.229,38.229,0,0,0,12.362-1.007,32.328,32.328,0,0,0,9.186-3.676A24.744,24.744,0,0,0,375.1,672.117a14.069,14.069,0,0,0,.184-10.754,33.179,33.179,0,0,0-3.564-6.528A14.551,14.551,0,0,0,362.209,648.563ZM313,697.447a35.722,35.722,0,0,0-4.279.631c-2.968.8-5.882.326-8.795-.169-8.2-1.395-14.569-5.368-18.255-13.076-.393-.823-.823-1.628-1.369-2.7a36.3,36.3,0,0,1-9.7,8.017,2.97,2.97,0,0,0-1.185,1.272c-1.894,4.047-3,8.212-1.781,12.711,1.258,4.653,4.128,8.213,7.7,11.243a26.932,26.932,0,0,0,14.925,5.982,23.887,23.887,0,0,0,15.989-3.431c5.316-3.422,8.522-8.092,8.665-14.593A8.783,8.783,0,0,0,313,697.447Zm-11.813-165.6a17.632,17.632,0,0,0,2.7-10.313,25.728,25.728,0,0,0-2.941-10.895,20.857,20.857,0,0,0-7.666-8.685,23.1,23.1,0,0,0-18.113-2.638,16.933,16.933,0,0,0-2.363,1.015c.11,1.763.212,3.4.316,5.037.5,7.919-1.474,15.013-6.967,20.944-.367.4-.983.7-.755,1.645,2.408.561,4.907,1.126,7.4,1.727a26.762,26.762,0,0,1,7.552,3.027c2.2,1.322,4.26,2.865,6.4,4.325C290.888,533.532,295.749,532.256,301.19,531.851Zm56.746,172.612a20.986,20.986,0,0,0-1.849-1.176,18.514,18.514,0,0,0-5.827-1.476c-9.068-1.244-16.513,2.188-21.016,10.014a16.276,16.276,0,0,0-2.244,9.2,24.709,24.709,0,0,0,9.818,18.948c5.211,3.99,11.044,4.552,17.117,2.046a9.649,9.649,0,0,0,4.766-3.934c-.06-.21-.06-.351-.129-.433-.381-.45-.776-.886-1.169-1.326-5.326-5.967-6.846-12.817-4.708-20.488a35.687,35.687,0,0,1,3.617-8.47C356.839,706.466,357.331,705.546,357.936,704.463Zm-61-107.981c1.96.214,3.5.25,4.975.566,8.949,1.916,15.82,6.637,19.971,14.973.305.613.7,1.179.955,1.594l10.522-4.476c2.47-11.088-3.2-23.946-12.828-29.188a2.738,2.738,0,0,0-.646.246,23.317,23.317,0,0,1-18.524,3.947,28.951,28.951,0,0,0-3.441-.2A38.635,38.635,0,0,1,296.936,596.482Zm4.86,127.779a24.005,24.005,0,0,0,11.384,7.258,14.688,14.688,0,0,0,7.38.38c5.327-1.206,4.681-.13,3.526-5.2-.106-.462-.267-.915-.33-1.382-.468-3.417-.775-6.85.222-10.218,2.511-8.484,7.9-14.117,16.553-16.435.912-.245,1.882-.3,2.574-1.3-.408-2.789-2.315-4.753-4.2-6.7a16.45,16.45,0,0,0-8.772-4.738c-2.166,1.923-4.115,3.836-6.255,5.5-2.207,1.719-4.6,3.2-6.861,4.75a26.279,26.279,0,0,1,1.338,4.208,19.252,19.252,0,0,1-2.616,13.305,23.981,23.981,0,0,1-10.342,8.94C304.356,723.132,303.3,723.585,301.8,724.261Zm-50.591-82.42c6.017-1.691,11.386-.233,16.648,1.6a32.663,32.663,0,0,1,13.978,9.891c1.285-2.311,3.527-3.425,4.621-5.347-2.491-1.9-4.96-3.556-7.141-5.526a27.239,27.239,0,0,1-5.489-7.384,23.072,23.072,0,0,1-2.972-8.311c-.339-3.01-.218-6.072-.3-9.064a36.232,36.232,0,0,1-6.057.462c-3.173-.278-5.8.875-8.34,2.45a28.686,28.686,0,0,0-6.508,5.468,10.441,10.441,0,0,0-.981,1.521,60.533,60.533,0,0,1,1.989,6.713A72.529,72.529,0,0,1,251.206,641.841Zm-64.079-123.76a36.048,36.048,0,0,1,13.245,4.146,27.754,27.754,0,0,1,10.063,8.892c1.774-1.578,3.342-3.182,5.122-4.5,1.864-1.38,3.932-2.486,6.068-3.809a21.23,21.23,0,0,1-4.325-16.082l-6.919-2.36c-.964.927-1.885,1.83-2.824,2.713-2.412,2.268-4.8,4.568-7.261,6.776a4.992,4.992,0,0,1-6.493.684c-.97-.595-1.9-1.441-3.407-1.27ZM360.52,701.422c7.314-7.439,15.984-9.679,25.8-7.711a11.769,11.769,0,0,0-.749-9.711c-1.837-3.4-4.289-6.174-8.23-7.383-.609.883-1.136,1.662-1.677,2.432a30.466,30.466,0,0,1-10.474,9.424,38,38,0,0,1-16.633,4.51c-.877.04-1.828-.23-2.67.423l1.341,4.432A27.416,27.416,0,0,1,360.52,701.422ZM191.462,630.384c.744-1.27,1.373-2.4,2.052-3.492s1.383-2.206,2.143-3.26a31.041,31.041,0,0,1,2.221-2.762c.875-.961,1.863-1.818,2.757-2.763.85-.9,2.155-1.333,2.835-2.524-2.128-1.925-3.657-4.182-5.665-5.9a7.645,7.645,0,0,0-.783.433,23.556,23.556,0,0,1-11.358,4.628,11.3,11.3,0,0,0-2.194.712A11.168,11.168,0,0,0,191.462,630.384Zm63.3-13.492c-.736-.421-1.326-.781-1.936-1.1a27.539,27.539,0,0,1-5.849-3.988,6.782,6.782,0,0,0-1.237-.769c-2.345,2.517-4.527,4.843-6.679,7.2a1.945,1.945,0,0,0-.276.8l7.575,4.948c1.25-1.155,2.507-2.4,3.855-3.536C251.624,619.248,253.126,618.159,254.757,616.892ZM162.99,647.3a7.437,7.437,0,0,0,5.6,1.668,6.267,6.267,0,0,0,6.01-6.176c.038-1.895-.872-2.736-2.83-2.693a5.211,5.211,0,0,0-2.978.933A18.548,18.548,0,0,0,162.99,647.3Zm35.868-80.236c1.321.947,2.8,1.867,4.111,2.985,1.419,1.21,2.68,2.6,4.045,3.954l4.524-2.515a23.2,23.2,0,0,1-5.828-9.562c-2.355,1.6-4.567,3.1-6.771,4.618C198.879,566.586,198.9,566.752,198.858,567.064ZM315.4,465.215a10.936,10.936,0,0,0-9.316,2.659c-.3.254-.368.771-.539,1.152,2.43,1.692,4.714.839,6.9-.039A4.543,4.543,0,0,0,315.4,465.215ZM198.77,728.354c-.209-2.089-1.5-3.146-3.162-3.883a1.741,1.741,0,0,0-1.939,2.819C195.109,728.856,196.823,728.969,198.77,728.354Z" transform="translate(-129.934 -449.941)" fill="#561e1e"/>
    </g>
  </g>
</svg>
