<svg id="Group_778" data-name="Group 778" xmlns="http://www.w3.org/2000/svg" width="369.587" height="472.177" viewBox="0 0 369.587 472.177">
  <g id="Group_776" data-name="Group 776" transform="translate(249.01 30.824)">
    <path id="Path_1076" data-name="Path 1076" d="M895.419,258.782c-3.962.413-6.911,1.377-8.275,4.827a4.392,4.392,0,0,0-.444,2.288c.724,3.536,2.236,6.631,5.5,8.551a5.229,5.229,0,0,0,5.015.5c.29-.128.607-.2.9-.326,3.147-1.371,5.361-3.625,5.531-7.138.181-3.738-2.064-6.264-5.17-7.953A10.247,10.247,0,0,0,895.419,258.782Zm.4,3.213a4.719,4.719,0,0,1,4.607,2.768,4.3,4.3,0,0,1-.741,4.877,6.26,6.26,0,0,1-5.327,2.579,1.624,1.624,0,0,1-.453-.138c-2.335-.868-4.6-4.076-4.423-6.252.174-2.1,2.7-3.75,5.861-3.832C895.5,261.992,895.66,262,895.819,262Z" transform="translate(-886.663 -258.782)" fill="rgba(86,30,30,0.17)"/>
  </g>
  <path id="Path_1077" data-name="Path 1077" d="M891.176,346.308c-.54-.746-.909-1.174-1.188-1.655a73.942,73.942,0,0,0-16.019-18.6,42.985,42.985,0,0,0-19.954-9.807,13.753,13.753,0,0,0-9.637,1.355,8.36,8.36,0,0,0-4.485,9.807,13.1,13.1,0,0,0,1.713,4.386,34.647,34.647,0,0,0,5.061,6.421c11.179,10.3,24.294,15.166,39.589,13.566a7.65,7.65,0,0,1,1.28.019c.129.009.251.118.606.3a16.316,16.316,0,0,1,.014,12.426c-1.457,3.922-4.094,5.449-7.634,5.016a41.349,41.349,0,0,1-7.171-1.457c-3.021-.934-5.952-2.172-8.9-3.338a85.058,85.058,0,0,0-16.049-5.064,27.267,27.267,0,0,0-6-.458,10.48,10.48,0,0,0-8.626,5.023c-2.1,3.216-1.781,6.367.99,8.988A22.87,22.87,0,0,0,838.61,376c1.721,1.05,3.542,1.933,5.3,2.925a57.238,57.238,0,0,1,13.41,10.139,33.575,33.575,0,0,1,4,5.086c1.4,2.19.85,3.611-1.635,4.116-2.242.455-4.567.5-6.853.745a75.568,75.568,0,0,0-8.139.939A9.654,9.654,0,0,0,837,407.317a8.54,8.54,0,0,0,.053,5.117c.811,2.3,1.708,4.579,2.731,6.792.9,1.959,2.023,3.819,3.064,5.714a5.4,5.4,0,0,1,.079,5.366,50.334,50.334,0,0,0-2.3,5.125,68.635,68.635,0,0,0-2.09,6.582,7.365,7.365,0,0,0,.088,4.538c.7-.256,1.5-.307,1.842-.729a11.948,11.948,0,0,0,1.42-2.631c1.616-3.534,3-7.191,4.863-10.591a9.859,9.859,0,0,0,.012-10.247c-1.053-1.889-2.239-3.707-3.211-5.634a30.152,30.152,0,0,1-2.342-5.551,5.381,5.381,0,0,1,4.025-7.02,42.889,42.889,0,0,1,6.826-.9c2.72-.267,5.462-.335,8.17-.68,4.925-.627,8.527-4.842,4.568-10.891a39.562,39.562,0,0,0-5.576-6.573,65.174,65.174,0,0,0-14.354-10.329c-2.022-1.1-4.042-2.234-5.947-3.524-2.394-1.62-3.024-3.76.161-6.282a7,7,0,0,1,5.293-1.477,36.567,36.567,0,0,1,6.779,1.256c4.928,1.6,9.761,3.483,14.652,5.2,3.4,1.19,6.788,2.41,10.248,3.381a24.1,24.1,0,0,0,5.557.675c4.5.173,7.7-2.016,9.874-5.813a16.57,16.57,0,0,0,2.162-7.408,24.048,24.048,0,0,0-.63-8.584,8.787,8.787,0,0,1-.167-1.779c.532-.333.993-.65,1.481-.917.759-.415,1.545-.776,2.3-1.193,5.637-3.094,8.382-7.969,7.892-14.275-1.169-15.032-7.628-27.308-19.842-36.364-.974-.723-1.942-1.7-3.485-1.445,2.537,2.38,5.094,4.49,7.311,6.912a46.38,46.38,0,0,1,12.3,28.86c.06.862.037,1.729.046,2.594.05,4.661-2.123,7.968-6.194,10.092C893.646,345.212,892.587,345.653,891.176,346.308Zm-5.016,1.052a19.539,19.539,0,0,1-2.269.454c-13.408.689-24.905-3.778-34.592-12.974a25.832,25.832,0,0,1-3.507-4.373,12.948,12.948,0,0,1-1.6-3.511,4.516,4.516,0,0,1,2.491-5.765,9.669,9.669,0,0,1,6.738-.731,38.169,38.169,0,0,1,14.552,6.371,68.2,68.2,0,0,1,16.6,17.468A33.455,33.455,0,0,1,886.161,347.36Z" transform="translate(-594.461 -234.951)" fill="rgba(86,30,30,0.29)"/>
  <g id="Group_777" data-name="Group 777" transform="translate(0 0)">
    <path id="Path_1078" data-name="Path 1078" d="M884.236,517.37c7.939,1.814,15.285,3.77,22.669,5.557,7.263,1.758,14.495,3.641,22.014,5.538.327.49.842,1.176,1.267,1.914,3.234,5.62,6.432,11.261,9.678,16.875,4.816,8.329,11.35,15.239,18.212,21.865,2.594,2.5,5.256,4.938,7.917,7.37,3.8,3.476,6.326,7.817,8.522,12.392a34.031,34.031,0,0,0,1.579,3.058,1.947,1.947,0,0,0,2.327.594,2.04,2.04,0,0,0,1.316-2.042,6.788,6.788,0,0,0-.493-2.073A44.506,44.506,0,0,0,969,573.07c-5.37-5.02-10.922-9.85-15.778-15.41a81.847,81.847,0,0,1-9.734-13.205c-4.919-8.639-10.026-17.187-14.563-26.026a55.014,55.014,0,0,0-17.276-19.576,81.129,81.129,0,0,1-12.844-10.893c-3.1-3.412-6-7.011-8.821-10.653-3.092-3.986-6.047-8.079-8.97-12.192a72.382,72.382,0,0,1-7.916-14.844c-2.276-5.615-1.2-8.8,4.647-12.105a10.935,10.935,0,0,1,9.208-.512,19.325,19.325,0,0,1,6.642,3.968c2.373,2.1,4.71,4.26,6.916,6.535a269.865,269.865,0,0,0,31.065,27.507c2.752,2.08,5.723,3.879,8.648,5.721a22.425,22.425,0,0,0,11.065,3.279c4.319.2,8.661.278,12.976.066a33.363,33.363,0,0,0,14.384-4.229c2.907-1.581,5.838-3.117,8.749-4.691a3.95,3.95,0,0,0,1.024-.776,1.756,1.756,0,0,0,.5-1.961,1.911,1.911,0,0,0-1.61-1.258,5.393,5.393,0,0,0-3.345.591c-1.508.844-3.079,1.585-4.537,2.507a35.485,35.485,0,0,1-20.952,5.566c-3.162-.132-6.314,0-9.466-.662a21.122,21.122,0,0,1-6.834-2.527,55.162,55.162,0,0,1-6.569-4.355,13.134,13.134,0,0,1,2.407-.131c4.253.72,8.491,1.537,12.748,2.225a26.758,26.758,0,0,0,4.306.224,1.453,1.453,0,0,0,1.5-1.3,2.972,2.972,0,0,0-.508-1.977,3.254,3.254,0,0,0-1.869-.937c-5.674-.944-11.357-1.83-17.041-2.713-2.133-.332-4.28-.575-6.409-.924a10.848,10.848,0,0,1-5.413-2.439,267.89,267.89,0,0,1-21.482-20.012,19.217,19.217,0,0,1,5.915-6.125,9.271,9.271,0,0,1,7.36-1.448c11.805,2.558,23.675,4.831,35.445,7.542,7.281,1.677,14.439,3.9,21.622,5.978,6.77,1.96,13.528,3.97,20.241,6.118a62.063,62.063,0,0,1,14.376,6.9,28.334,28.334,0,0,1,12.591,17.45c1.353,5.3,2.333,10.691,3.451,16.046,1.5,7.191,3.047,14.372,5.257,21.385a55,55,0,0,0,10.767,20.037,45.856,45.856,0,0,0,7.419,6.594,184.423,184.423,0,0,0,21.933,13.818c13.293,7.222,26.618,14.387,39.867,21.69,7.442,4.1,14.975,8.07,21.957,12.961a6.354,6.354,0,0,0,1.532.755,2.138,2.138,0,0,0,2.29-.791,1.815,1.815,0,0,0-.1-2.382,13.969,13.969,0,0,0-2.6-2.22c-4.164-2.577-8.3-5.212-12.588-7.578-16.27-8.982-32.6-17.86-48.895-26.79a198.29,198.29,0,0,1-20.822-13.157,41.972,41.972,0,0,1-13.989-17.789c-2.775-6.378-4.385-13.1-5.911-19.843-1.59-7.021-2.933-14.1-4.431-21.137a38.639,38.639,0,0,0-6.583-14.9c-3.232-4.439-7.552-7.482-12.251-10.081a79.976,79.976,0,0,0-16.743-6.885c-12.582-3.6-25.129-7.34-37.776-10.7-7.358-1.953-14.881-3.285-22.334-4.877-3.372-.72-6.753-1.392-10.459-2.152a18.942,18.942,0,0,1,1.607-1.407c7.607-5.216,15.333-10.266,22.816-15.654a100.824,100.824,0,0,0,27.81-30.458c2.88-4.821,5.682-9.7,8.245-14.694,1.77-3.448,3.088-7.13,4.574-10.721.933-2.254,1.951-4.489,2.661-6.814s1.044-4.762,1.613-7.133c1.684-7.008,2.864-14.1,3.985-21.22,1.872-11.883,1.718-23.842,1.769-35.809.027-6.22-.641-12.375-1.109-18.552a32.956,32.956,0,0,0-.537-3.854c-.525-2.672-1.766-4.895-4.354-6.075-2.877-1.313-5.742-2.677-8.7-3.78a199.969,199.969,0,0,0-27.378-7.749c-9.273-2.02-18.556-4.02-27.888-5.735-6.786-1.247-13.656-2.043-20.5-2.987-3.846-.531-7.7-1.185-11.566-1.371-5.9-.282-11.821-.248-17.732-.244a11.574,11.574,0,0,0-3.345.764,6.725,6.725,0,0,0-4.109,3.554c-5.495,10.624-10.9,21.276-15.157,32.486-3.476,9.157-7.12,18.253-9.432,27.795-2.545,10.5-4.859,21.057-6.422,31.742a66.152,66.152,0,0,0-.625,15.1c.18,2.151.081,4.325.138,6.487a106.429,106.429,0,0,0,4.647,28.92,92.017,92.017,0,0,0,18.831,34.206c2.1,2.373,4.265,4.694,6.383,7.053.463.515.854,1.093,1.594,2.048-2.455.044-4.429.111-6.4.108a23.735,23.735,0,0,0-8.8,1.951,13.277,13.277,0,0,0-5.82,4.334,11.56,11.56,0,0,0,1.637,15.955,27.275,27.275,0,0,0,3.561,2.433c.972.6,2.018,1.072,3.305,1.744-1.493.545-2.691.944-3.86,1.415a19.328,19.328,0,0,0-6.878,4.377c-3.645,3.779-4.362,8.342-3.306,13.244a9.376,9.376,0,0,0,3.549,5.306c1.807,1.427,3.656,2.8,5.492,4.2.155.924-.639,1.1-1.172,1.535a29.027,29.027,0,0,0-2.9,2.58,9.691,9.691,0,0,0-2.758,6.191c-.026.431-.109.859-.137,1.289-.421,6.421,1.95,10.417,7.813,13.047,1.7.763,3.469,1.381,5.417,2.148-.88.9-1.628,1.747-2.455,2.5-3.834,3.514-4.464,9.649-2.551,14.464a6.932,6.932,0,0,0,1.853,2.34,21.585,21.585,0,0,0,2.668,1.786c-.094.8-.127,1.632-.3,2.438-.866,4.084-1.657,8.188-2.687,12.231a19.031,19.031,0,0,1-6.677,10.381,163.719,163.719,0,0,0-31.083-1.554,39.887,39.887,0,0,0-10.582,1.937,9.9,9.9,0,0,0-4.691,2.972,5.732,5.732,0,0,0-.926,6.444,13.634,13.634,0,0,0,4.12,4.937,47,47,0,0,0,8.756,5.53,125.052,125.052,0,0,0,17.623,7.052,241.528,241.528,0,0,0,35.646,8.472c6.118,1.006,12.272,1.7,18.423,2.187a83.524,83.524,0,0,0,21.556-.734,20.818,20.818,0,0,0,7.689-2.738c3.594-2.312,4.376-5.672,2-9.259a18.349,18.349,0,0,0-3.191-3.484,38.541,38.541,0,0,0-8.7-5.609,140.984,140.984,0,0,0-25.7-9.438c-2.3-7.261-.369-14.332,1.339-21.7.827.112,1.5.172,2.152.3,10.646,2.008,20.872,5.448,31,9.2a53.931,53.931,0,0,1,5.826,2.818A26.371,26.371,0,0,1,930.2,567.638a204.085,204.085,0,0,0,13.155,24.315c1.675,2.689,3.405,5.355,5.3,7.895A147.4,147.4,0,0,0,964.2,617.822,57.181,57.181,0,0,0,980.206,628.7c3.789,1.75,7.626,3.409,11.513,4.93a149.45,149.45,0,0,1,17.581,8.257c9.595,5.276,19.275,10.4,28.839,15.728,12.342,6.879,24.569,13.957,35.837,22.547q8.6,6.556,17.184,13.131c1.259.959,2.532,1.908,3.859,2.768a2.077,2.077,0,0,0,2.463-3.346,19.77,19.77,0,0,0-1.947-1.711c-7.448-5.689-14.875-11.405-22.371-17.03a201.9,201.9,0,0,0-21.077-13.567c-7.752-4.434-15.594-8.71-23.412-13.028-6.557-3.623-13.084-7.3-19.721-10.774-4.333-2.265-8.8-4.275-13.275-6.261-4.208-1.868-8.539-3.461-12.739-5.346a53.425,53.425,0,0,1-15.722-10.517,136.832,136.832,0,0,1-23.764-31.2c-2.744-4.9-5.26-9.926-7.856-14.906-.666-1.276-1.209-2.617-1.876-3.894A31.815,31.815,0,0,0,920.809,550.9a58.2,58.2,0,0,0-10.236-4.584q-10.266-3.31-20.6-6.4c-2.06-.621-4.207-.95-6.3-1.467-1.1-.27-2.164-.654-3.369-1.025-.006-3.515,1.209-6.639,1.754-9.865C882.6,524.3,883.423,521.1,884.236,517.37Zm-7.885-83.716a7.5,7.5,0,0,1-.883-1.2,35.988,35.988,0,0,0-7.814-10.774,89.4,89.4,0,0,1-20.163-31.926,98.743,98.743,0,0,1-3.613-12.416,112.324,112.324,0,0,1-2.768-25.72c.012-6.35-.047-12.691,1.107-18.957.516-2.8.656-5.714,1.919-8.4,1.689,1.108,3.176,2.237,4.8,3.107a33.08,33.08,0,0,0,5.147,2.219,104.283,104.283,0,0,0,19.31,4.455,126.494,126.494,0,0,0,18.539,1.056c7.057-.111,14.108-.054,21.163-.725,7.164-.683,14.38-.81,21.574-1.178.863-.044,1.738,0,2.591-.122a109.585,109.585,0,0,1,21.146-.6A35.631,35.631,0,0,1,973.32,336.4a16.508,16.508,0,0,1,7.042,6.809,59.941,59.941,0,0,1,2.574,5.934,6.156,6.156,0,0,1-.043,4.637c-1.415,3.772-2.691,7.6-4.207,11.331-3.159,7.781-7.662,14.835-12.166,21.877A95.225,95.225,0,0,1,955,401.558a97.83,97.83,0,0,1-14.144,12.033c-5.056,3.581-10.221,7.008-15.293,10.565a126.387,126.387,0,0,1-15.516,9.386,26.428,26.428,0,0,0-8.225,6.194c-.431.5-.651,1.307-1.859,1.333-1.131-.948-2.451-2.05-3.766-3.157a26.121,26.121,0,0,0-7.788-4.562c-3.348-1.244-6.694-1.663-10.119-.352C877.65,433.242,876.99,433.439,876.351,433.654Zm-4.376-186.707a65.052,65.052,0,0,0,15.288,6.495,352.809,352.809,0,0,0,40.221,9.743c7.346,1.38,14.737,2.52,22.115,3.725a182.1,182.1,0,0,0,20.988,2.46c.863.04,1.727.108,2.584.218a46.3,46.3,0,0,0,14.2-.11,8.061,8.061,0,0,1,1.968.112c3.7,16.006,1.306,60.816-3.832,72.985a3.4,3.4,0,0,1-.575-.625c-3.733-6.984-9.887-10.665-17.3-12.548a61.007,61.007,0,0,0-14.958-1.855c-4.456-.006-8.913.454-13.369.707a31.669,31.669,0,0,0-4.308.286,8.227,8.227,0,0,1-3.81-.251c-11.964-3.112-23.925-6.236-35.914-9.25-6.409-1.611-12.8-3.375-19.42-3.973-3.151-.285-6.3-.641-9.434-1.039a51.357,51.357,0,0,0-18.864.865,6.979,6.979,0,0,1-1.584.015C847.74,298.907,863.66,259.462,871.975,246.947Zm3.239,324.371a7.312,7.312,0,0,1-1.753.838,27.556,27.556,0,0,1-3.449.209c-5.556.059-10.815-1.364-15.975-3.26-1.35-.5-2.684-1.043-4.051-1.489a2.154,2.154,0,0,0-2.573,1,2.236,2.236,0,0,0,.664,2.711,11.3,11.3,0,0,0,1.9,1,57.635,57.635,0,0,0,16.18,4.363,26.886,26.886,0,0,0,8.559-.2c3.081-.625,4.384-2.028,4.908-5.157.092-.544.18-1.089.278-1.687a5.492,5.492,0,0,1,1.428.015c8.262,2.569,16.362,5.551,23.832,9.988a44.991,44.991,0,0,1,5.182,3.859,4.117,4.117,0,0,1,1.712,2.888,6.861,6.861,0,0,1-4.423,3.093c-3.343,1.075-6.827,1.014-10.256,1.34a64.559,64.559,0,0,1-7.764.177c-2.587-.068-5.172-.321-7.752-.552-3.725-.334-7.473-.546-11.162-1.127-5.96-.938-11.911-1.99-17.81-3.253a182.657,182.657,0,0,1-31.354-9.411,71.445,71.445,0,0,1-12.342-6.166,26.054,26.054,0,0,1-4.371-3.492c-1.982-2.039-1.668-3.526.85-4.657a18.75,18.75,0,0,1,4.081-1.344,50.227,50.227,0,0,1,8.562-1.019,139.154,139.154,0,0,1,25.4,1.567c.993.164,2.009.181,3.014.27a3.963,3.963,0,0,0,3.121-1.132,27.061,27.061,0,0,0,8.8-15.475q2.281-11.213,4.572-22.423c3.389-16.494,6.75-32.993,10.221-49.47.551-2.616.648-5.386,2.088-8l11.577,15.8c-1.1,5.189-2.193,10.248-3.245,15.314-3.568,17.19-7.074,34.393-10.708,51.57a37.876,37.876,0,0,0,1.085,20.428C874.519,569.236,874.79,570.053,875.214,571.318ZM876.272,243.5c1.428-.07,2.849-.216,4.266-.194a90.181,90.181,0,0,1,12.5.64c4.115.64,8.33.632,12.452,1.246,8.245,1.23,16.459,2.673,24.68,4.061a353.378,353.378,0,0,1,39.078,8.982c4.967,1.432,9.81,3.3,14.7,5a3.672,3.672,0,0,1,2.411,1.745,24.4,24.4,0,0,1-5.3.469c-5.444-.55-10.934-.254-16.375-1.122-5.534-.883-11.159-1.207-16.694-2.09-7.521-1.2-15-2.671-22.488-4.073a335.108,335.108,0,0,1-36.832-9.095c-3.7-1.14-7.3-2.642-10.943-3.98A1.863,1.863,0,0,1,876.272,243.5ZM889.455,492.64c2.706.51,5.25.72,7.749,1.368a7.708,7.708,0,0,1,3.016,1.54c3.252,2.62,6.619,5.1,9.826,7.769,2.872,2.394,5.718,4.847,8.345,7.5,3.174,3.207,5.212,7.218,7.137,11.259.068.141-.172.428-.271.646-22.189-5.049-35.959-8.578-39.952-10.31C886.494,505.918,887.853,499.361,889.455,492.64ZM847.192,320.121a10.155,10.155,0,0,1,5.281-1.577,106.726,106.726,0,0,1,30.413,2.244c10.065,2.3,20.063,4.892,30.084,7.385,1.281.319,2.521.809,4.6,1.488-6.912.38-12.927.844-18.95,1.007a177.44,177.44,0,0,1-18.518-.526,105.686,105.686,0,0,1-23.6-4.549,38.435,38.435,0,0,1-5.2-2.055A8.58,8.58,0,0,1,847.192,320.121Zm19.2,163.577a68.451,68.451,0,0,1-10.218-2.242,21.056,21.056,0,0,1-8.04-4.821,7.2,7.2,0,0,1-2.139-7.824,8.626,8.626,0,0,1,4.236-5.7,36.606,36.606,0,0,1,5.049-2.354c4.116-1.439,8.486-1.25,12.751-1.7a3.679,3.679,0,0,1,3.508,1.181c-.821,3.951-1.583,7.89-2.469,11.8C868.19,475.9,867.849,479.9,866.388,483.7Zm3.071-29.337c-1.8-.267-3.346-.412-4.856-.738a33.685,33.685,0,0,1-9.736-3.381,16.421,16.421,0,0,1-3.482-2.5c-2.842-2.831-2.863-6.638-.264-9.713a11.09,11.09,0,0,1,5.5-3.251c4.34-1.334,8.8-1.306,13.268-.943a1.99,1.99,0,0,1,1.474,3.189c-.342.459-.776.85-1.143,1.293a10.533,10.533,0,0,0-2.366,10.061C868.378,450.262,868.87,452.163,869.459,454.361Zm-7.722,52.765a28.4,28.4,0,0,1-9.5-2.809c-5.49-2.586-5.163-11.3-.948-14.213a6.429,6.429,0,0,1,1.478-.859,17.991,17.991,0,0,1,12.714.069C864.34,495.339,863.22,501.184,861.736,507.126Zm-1.538,8.109c-1.016,4.2-1.217,8.165-2.888,12.145-2.036-1.865-2.032-4.006-1.778-6.094A7.018,7.018,0,0,1,860.2,515.235Z" transform="translate(-798.919 -224.28)" fill="#561e1e"/>
  </g>
</svg>
