<?xml version="1.0" standalone="no"?>
<!DOCTYPE svg PUBLIC "-//W3C//DTD SVG 20010904//EN"
 "http://www.w3.org/TR/2001/REC-SVG-20010904/DTD/svg10.dtd">
<svg version="1.0" xmlns="http://www.w3.org/2000/svg"
 width="455.000000pt" height="606.000000pt" viewBox="0 0 455.000000 606.000000"
 preserveAspectRatio="xMidYMid meet">

<g transform="translate(0.000000,606.000000) scale(0.100000,-0.100000)"
fill="#000000" stroke="none">
<path d="M3750 6033 c-49 -18 -155 -72 -220 -111 -156 -94 -178 -112 -197
-158 -21 -50 -38 -59 -28 -14 4 17 3 30 -2 30 -19 0 -81 -81 -137 -180 -20
-35 -26 -40 -26 -22 0 35 -18 26 -48 -23 -15 -25 -30 -45 -34 -45 -3 0 -12 17
-19 38 -51 156 -154 179 -430 96 l-86 -26 -96 55 c-175 101 -272 130 -355 108
-92 -25 -139 -94 -244 -361 -48 -124 -108 -250 -118 -250 -3 1 -17 18 -32 39
-36 53 -123 96 -175 87 -21 -4 -63 -10 -93 -14 -44 -6 -54 -10 -52 -24 2 -11
-9 -23 -26 -32 -50 -26 -92 -67 -92 -89 -1 -12 -9 -46 -19 -76 l-19 -55 -89
-1 c-49 -1 -100 -8 -114 -15 -82 -43 -92 -101 -29 -172 72 -82 184 -140 354
-183 84 -21 88 -23 55 -30 -97 -21 -216 -110 -259 -194 -13 -26 -27 -41 -39
-41 -46 0 -51 -8 -51 -92 0 -70 2 -81 19 -85 14 -3 20 -17 24 -55 4 -27 18
-75 32 -105 l25 -56 -22 -16 c-83 -57 -157 -150 -145 -183 2 -7 -6 -33 -18
-58 -27 -54 -40 -127 -24 -132 6 -2 9 -17 7 -33 l-3 -30 -22 41 c-12 23 -47
64 -78 92 -70 65 -137 87 -236 80 -254 -19 -385 -298 -238 -503 24 -34 107
-102 147 -121 1 -1 -9 -46 -24 -100 -23 -84 -27 -120 -28 -239 -1 -140 -1
-140 33 -210 46 -94 148 -195 272 -268 52 -31 102 -64 112 -74 16 -19 15 -19
-61 -19 -68 0 -86 -5 -152 -36 -85 -41 -114 -68 -163 -151 -61 -102 -71 -246
-24 -382 20 -60 83 -185 119 -237 14 -20 17 -36 12 -67 -6 -36 -3 -44 18 -61
18 -14 27 -33 32 -68 7 -58 12 -65 38 -51 15 8 17 17 12 45 -8 42 0 44 21 4 9
-18 23 -30 35 -30 17 0 18 3 9 26 -5 15 -8 28 -7 29 2 1 46 -3 98 -10 52 -7
100 -10 107 -8 6 3 22 -9 34 -26 13 -17 28 -31 33 -30 6 0 5 3 -1 6 -7 2 -13
11 -13 18 0 7 -6 15 -12 18 -7 2 -10 8 -6 12 4 4 18 -6 32 -21 14 -16 26 -24
26 -17 0 13 62 12 112 -2 23 -6 29 -3 42 23 14 27 25 32 96 48 90 19 130 43
130 79 0 29 -15 41 -81 64 -35 12 -53 24 -51 32 7 27 75 176 140 306 64 128
74 166 32 128 -50 -45 6 54 97 174 35 45 62 85 59 88 -13 14 -206 -189 -206
-216 0 -6 -5 -11 -11 -11 -5 0 -7 -5 -4 -11 4 -5 0 -18 -8 -27 -8 -9 -18 -28
-22 -42 -4 -13 -14 -30 -21 -38 -8 -8 -26 -28 -39 -46 -24 -32 -25 -35 -10
-75 8 -25 10 -39 4 -35 -6 4 -15 1 -19 -6 -6 -9 -11 -7 -20 9 -8 16 -8 26 -1
35 8 9 8 22 0 45 -13 36 -20 38 -37 11 -7 -12 -8 -20 -2 -20 5 0 10 5 10 10 0
6 5 10 10 10 7 0 7 -6 0 -19 -7 -14 -7 -28 0 -47 12 -30 4 -46 -11 -24 -8 11
-8 8 -3 -10 12 -40 10 -63 -6 -68 -12 -4 -13 -2 -2 9 15 16 16 33 1 23 -7 -4
-10 -1 -7 7 3 8 -5 18 -16 24 -12 6 -34 34 -49 63 l-29 53 31 35 c40 45 68
100 81 160 8 36 30 70 94 148 118 142 215 231 303 275 62 31 69 29 64 -25 -5
-72 25 -37 44 51 6 27 8 28 19 12 7 -9 16 -17 20 -17 11 0 -3 72 -17 90 -30
36 -66 100 -57 100 6 0 23 -18 38 -40 15 -21 32 -39 39 -40 7 0 30 -19 52 -42
48 -51 54 -47 11 7 -16 21 -30 44 -30 51 0 8 -3 14 -8 14 -4 0 -13 9 -20 20
-23 37 7 21 33 -18 24 -35 49 -67 107 -135 14 -18 29 -30 32 -27 3 3 -8 21
-24 40 -18 21 -25 37 -19 39 7 2 16 -4 21 -13 12 -21 49 -56 60 -56 5 0 4 9
-2 20 -6 11 -15 20 -20 20 -6 0 -10 5 -10 10 0 6 7 10 15 10 8 0 15 -7 15 -15
0 -8 7 -15 15 -15 21 0 19 9 -11 37 -14 13 -24 27 -21 30 4 3 27 -15 53 -41
35 -35 51 -45 66 -40 13 4 24 1 29 -7 8 -12 11 -12 18 1 8 12 13 12 30 -4 12
-11 21 -14 21 -8 0 7 -4 12 -10 12 -15 0 -12 19 4 36 17 16 36 19 36 4 0 -5 5
-10 10 -10 6 0 5 8 -2 20 -16 25 -19 25 -46 0 -25 -24 -32 -25 -32 -5 0 8 5
15 10 15 6 0 10 5 10 10 0 15 -19 12 -37 -5 -12 -13 -13 -18 -3 -31 16 -19 5
-31 -14 -15 -8 7 -20 10 -26 6 -11 -7 -76 52 -67 62 3 3 14 -2 23 -12 12 -12
19 -13 24 -5 5 9 9 9 14 1 4 -6 2 -11 -3 -11 -6 0 -11 -4 -11 -10 0 -17 14
-11 49 20 26 24 36 28 47 19 8 -6 20 -9 29 -6 8 4 17 3 19 -2 7 -10 67 -8 85
3 8 5 16 4 21 -4 6 -10 14 -8 31 9 13 12 29 19 37 16 8 -3 27 4 43 16 40 28
49 17 13 -15 -16 -14 -23 -26 -16 -26 6 0 12 4 12 8 0 5 11 15 25 22 14 7 25
19 25 27 0 17 27 17 33 1 2 -7 8 -9 13 -5 5 4 2 12 -6 17 -19 12 -1 32 65 75
27 17 59 42 69 54 11 11 24 21 30 21 5 0 -8 -19 -29 -42 -38 -41 -38 -41 -5
-13 43 37 49 45 44 60 -3 6 9 21 26 33 60 45 182 238 216 342 l18 55 8 -33 c8
-28 11 -31 28 -22 50 27 103 134 115 234 l8 59 18 -24 18 -24 11 30 c35 90
-27 263 -129 357 -55 52 -121 88 -121 68 0 -5 25 -33 57 -62 31 -29 73 -79 93
-110 36 -55 68 -143 57 -154 -3 -4 -18 6 -32 20 -14 14 -27 26 -28 26 -2 0 -1
-43 1 -95 3 -59 0 -113 -8 -140 -14 -49 -30 -60 -30 -19 0 40 -18 18 -26 -31
-7 -48 -18 -58 -27 -25 -6 22 -27 28 -27 8 0 -28 -90 -210 -134 -274 -83 -118
-174 -214 -152 -159 3 8 9 23 12 33 4 9 -22 -11 -57 -44 -92 -88 -159 -138
-236 -175 -63 -30 -76 -33 -168 -33 -76 -1 -108 3 -134 16 -44 23 -54 23 -46
-2 10 -31 -16 -25 -66 14 -45 36 -64 38 -54 5 9 -27 0 -24 -56 17 -86 63 -169
188 -169 256 0 28 -21 50 -28 30 -6 -20 -19 -13 -32 18 -13 32 -10 42 17 46
40 6 60 16 90 43 l33 28 92 -48 c51 -27 118 -56 148 -65 72 -22 173 -22 225 1
122 53 294 210 383 350 25 39 47 72 49 74 2 3 20 -12 41 -32 43 -42 62 -47 62
-14 0 55 -79 130 -156 147 -62 14 -88 -8 -34 -30 54 -23 55 -33 9 -102 -57
-83 -219 -245 -293 -292 -84 -53 -131 -69 -191 -62 -95 11 -270 86 -331 143
-38 35 -79 104 -104 175 l-19 53 -1 -41 c0 -54 24 -132 55 -178 l25 -37 -32
-30 c-23 -21 -43 -29 -68 -29 -70 0 -80 13 -116 150 -18 69 -46 165 -61 214
-27 84 -30 90 -64 101 -20 7 -75 16 -123 20 l-87 7 2 77 c2 66 0 76 -15 73
-20 -4 -20 1 0 57 20 58 41 99 72 140 l26 35 12 -67 c25 -132 110 -261 258
-390 42 -37 87 -69 100 -73 29 -7 63 10 140 70 33 25 63 46 67 46 16 0 179
171 204 214 32 54 48 146 35 196 -20 75 -106 126 -253 151 -128 21 -96 36 103
46 l125 6 24 -51 c30 -63 111 -146 175 -179 75 -38 132 -52 236 -58 52 -2 84
-1 70 3 -22 7 -18 10 35 25 33 10 78 27 100 38 22 11 31 17 20 14 -13 -4 -17
-3 -10 4 10 9 65 3 110 -14 14 -5 12 0 -8 15 -22 18 -25 25 -16 36 8 9 8 14 1
14 -6 0 -14 -4 -17 -10 -3 -5 -11 -10 -18 -10 -6 0 2 15 19 33 16 17 35 43 43
57 31 52 55 106 56 124 3 32 75 75 75 45 0 -7 5 -8 13 -2 13 9 60 9 142 -1 28
-3 94 -8 149 -11 54 -3 102 -7 106 -10 5 -3 32 -7 60 -10 40 -4 58 -11 74 -30
12 -14 27 -25 34 -25 7 0 12 -5 12 -11 0 -6 7 -17 15 -25 27 -27 16 -38 -12
-13 -15 13 -31 29 -35 34 -4 6 -8 6 -8 1 0 -4 25 -35 55 -68 69 -74 73 -100 5
-30 -47 48 -60 59 -60 48 0 -5 6 -12 59 -68 19 -21 30 -41 26 -48 -5 -8 -17 0
-37 24 -16 20 -39 41 -51 47 -16 9 -14 3 11 -23 17 -19 32 -38 32 -42 0 -5 18
-30 40 -56 45 -54 46 -56 24 -64 -8 -3 -12 -2 -9 4 3 5 -7 22 -22 37 -16 16
-38 42 -51 57 -12 16 -25 27 -28 24 -3 -3 9 -22 25 -41 17 -19 31 -39 31 -45
0 -6 7 -18 16 -27 13 -12 14 -19 5 -28 -8 -8 -11 -8 -11 2 0 15 -40 54 -48 47
-2 -3 5 -17 17 -32 11 -15 21 -33 21 -40 0 -8 5 -14 10 -14 6 0 10 5 10 10 0
6 5 10 10 10 6 0 10 -5 10 -10 0 -6 12 -28 26 -50 14 -21 23 -44 19 -49 -3 -6
3 -24 15 -40 11 -16 16 -32 11 -35 -8 -5 -44 57 -46 79 -1 15 -36 78 -41 73
-6 -6 29 -123 38 -126 4 -2 8 -10 8 -17 0 -7 6 -15 13 -18 6 -2 9 -8 5 -12 -8
-9 -38 18 -38 34 0 6 -5 11 -11 11 -6 0 -9 9 -6 20 3 11 1 20 -3 20 -5 0 -12
10 -16 23 -7 22 -81 137 -89 137 -2 0 11 -27 30 -60 19 -33 42 -85 51 -115 10
-30 20 -55 24 -55 3 0 6 -16 7 -36 1 -40 -17 -34 -20 7 0 13 -16 49 -34 79
-37 61 -42 62 -16 4 9 -22 17 -41 18 -44 1 -3 7 -23 13 -45 13 -45 16 -102 5
-91 -5 4 -8 11 -9 14 -4 39 -18 82 -26 82 -6 0 -7 -11 -3 -27 5 -16 8 -38 9
-50 1 -12 4 -25 9 -29 10 -10 9 -24 -2 -24 -5 0 -14 17 -20 38 -8 31 -10 24
-7 -53 3 -96 1 -115 -16 -115 -6 0 -5 7 3 16 10 13 10 17 -1 24 -11 7 -11 11
-1 23 8 11 9 17 1 22 -6 4 -8 15 -5 25 3 10 1 21 -5 25 -10 6 -16 -47 -11
-105 l1 -25 -20 25 c-14 18 -20 20 -20 9 0 -8 6 -21 13 -28 10 -11 9 -13 -4
-8 -13 4 -15 1 -12 -14 7 -24 12 -24 29 -1 12 15 13 15 14 0 0 -9 6 -18 13
-21 6 -2 8 -8 4 -13 -4 -5 -12 -2 -18 6 -8 13 -10 13 -18 1 -7 -11 -13 -10
-32 8 l-24 22 -7 -46 c-4 -26 -14 -55 -23 -65 -15 -16 -15 -18 1 -24 13 -5 14
-9 3 -22 -7 -8 -14 -27 -15 -41 -3 -28 -11 -40 -20 -30 -4 4 -2 13 4 20 9 10
9 16 0 25 -8 8 -8 15 1 26 8 9 9 16 2 21 -6 3 -13 -10 -17 -33 -9 -56 -18 -69
-38 -53 -12 10 -16 10 -16 1 0 -17 -32 -84 -44 -92 -6 -4 -8 -10 -4 -13 3 -3
-14 -27 -38 -52 -44 -45 -53 -63 -34 -63 6 0 10 5 10 10 0 6 5 10 10 10 20 0
9 -16 -47 -75 -32 -32 -57 -64 -55 -70 1 -7 -5 -18 -13 -25 -18 -15 -20 -47
-2 -53 7 -2 8 -8 3 -13 -5 -5 -11 -4 -13 4 -7 17 -16 15 -30 -7 -10 -17 -9
-18 10 -13 20 5 21 4 8 -12 -23 -28 -6 -28 22 0 15 15 27 22 27 17 0 -5 -9
-18 -20 -28 -11 -10 -20 -23 -20 -28 0 -5 -8 -16 -17 -24 -13 -11 -10 -10 9 1
34 20 42 20 35 2 -3 -8 -1 -16 4 -18 6 -2 -10 -18 -34 -36 -45 -32 -95 -98
-83 -109 3 -4 19 4 34 18 52 47 96 72 124 72 20 0 27 5 24 13 -4 10 3 12 27 8
24 -3 27 -2 12 4 -18 8 -16 10 14 17 24 5 36 3 42 -6 6 -10 9 -11 9 -1 0 6 7
12 15 12 22 0 18 -15 -7 -33 -13 -8 -19 -19 -15 -23 8 -8 26 10 46 45 7 12 16
12 57 1 66 -18 73 -26 27 -35 -57 -10 -58 -15 -10 -40 56 -28 107 -63 129 -90
22 -25 23 -42 3 -25 -17 14 -16 16 -35 -25 -8 -16 -16 -33 -18 -36 -1 -4 7 -9
20 -12 18 -5 20 -9 10 -19 -9 -9 -15 -9 -24 0 -7 7 -16 12 -22 12 -5 0 0 -9
12 -20 25 -24 42 -26 42 -5 0 8 5 15 10 15 6 0 10 5 10 10 0 6 -6 10 -14 10
-20 0 -31 19 -19 31 12 12 95 -59 87 -73 -4 -5 3 -16 15 -24 12 -8 21 -23 21
-32 0 -11 -10 -6 -35 18 -20 19 -33 40 -31 47 8 21 -8 15 -22 -8 -12 -19 -11
-24 14 -50 23 -24 25 -31 14 -44 -8 -10 -9 -15 -1 -15 6 0 11 5 11 10 0 6 5
10 11 10 6 0 8 -7 5 -16 -3 -9 4 -25 20 -39 19 -18 24 -30 19 -46 -4 -12 -3
-19 2 -16 5 3 16 -8 25 -24 20 -33 10 -39 -17 -9 -10 11 -22 20 -27 20 -5 0
11 -19 36 -42 26 -22 45 -46 44 -52 -1 -6 6 -23 15 -37 10 -15 17 -31 15 -35
-1 -5 6 -22 16 -37 10 -15 16 -30 13 -34 -4 -3 2 -17 13 -31 11 -13 17 -28 14
-33 -3 -5 2 -19 10 -31 9 -12 16 -31 16 -41 0 -10 7 -25 15 -33 17 -18 20 -34
5 -34 -5 0 -1 -9 11 -21 12 -12 19 -29 16 -40 -3 -10 -1 -19 4 -19 9 0 33 -50
27 -56 -2 -1 -22 14 -44 34 -67 59 -86 74 -90 69 -3 -2 17 -22 43 -45 68 -57
97 -84 112 -104 24 -32 -3 -19 -47 22 -23 22 -46 40 -51 40 -5 0 -11 6 -14 13
-2 6 -8 8 -13 4 -8 -8 -1 -14 36 -37 8 -4 12 -12 8 -16 -4 -4 -14 -1 -23 6 -8
7 -15 8 -15 3 0 -14 51 -56 58 -47 4 4 1 9 -5 11 -15 5 -18 23 -4 23 14 0 101
-86 101 -100 0 -9 -8 -6 -22 7 -20 19 -25 19 -37 6 -11 -12 -10 -16 5 -28 11
-7 21 -11 24 -9 2 3 -2 9 -10 14 -8 5 -11 12 -7 16 4 4 17 -2 30 -14 27 -26
114 -43 105 -21 -212 520 -266 664 -257 681 13 25 -1 71 -52 166 -45 84 -44
82 -24 82 8 0 15 6 15 13 0 26 -71 133 -115 173 -25 22 -45 43 -45 46 0 3 9 8
20 11 31 8 24 32 -19 69 -48 41 -121 68 -202 75 l-62 6 7 69 c10 109 27 145
101 212 95 85 255 285 255 318 0 4 5 8 10 8 6 0 10 -13 10 -28 0 -59 28 -47
61 27 34 78 59 191 59 270 l0 76 24 -30 c13 -16 28 -27 32 -23 6 7 -7 109 -23
178 -5 21 -3 23 8 13 7 -7 19 -13 27 -13 23 0 10 53 -37 152 -23 48 -41 92
-41 97 0 6 9 20 20 31 25 25 25 65 0 134 -27 70 -85 136 -148 165 -34 16 -54
33 -61 50 -5 14 -23 60 -39 102 l-29 77 51 6 c98 11 200 61 263 127 87 93 125
261 87 390 -16 55 -53 131 -66 137 -15 7 -8 34 7 29 28 -11 27 15 -1 45 -28
29 -135 88 -161 88 -16 0 -17 17 -1 22 20 7 0 25 -35 32 -51 10 -160 -9 -224
-38 -37 -18 -79 -50 -123 -96 -66 -68 -80 -74 -80 -39 0 10 -8 23 -17 28 -20
12 -17 16 91 100 57 45 71 67 36 58 -11 -3 -20 -4 -20 -2 0 2 27 24 59 49 62
48 128 123 117 133 -3 4 -23 -1 -42 -11 -58 -27 -50 -12 20 38 57 41 69 55
107 133 56 115 131 250 191 343 26 41 48 78 48 83 0 8 -18 8 -40 0z m-36 -65
c-4 -7 -23 -37 -41 -66 -19 -29 -48 -78 -65 -110 -17 -31 -38 -65 -47 -76 -9
-10 -15 -20 -13 -22 1 -2 -14 -39 -34 -82 -36 -74 -41 -80 -133 -144 -53 -37
-112 -81 -131 -97 l-35 -30 79 25 c43 13 80 23 83 21 5 -5 -75 -70 -107 -87
-14 -7 -27 -16 -30 -19 -3 -3 -24 -19 -47 -35 -24 -16 -43 -30 -43 -32 0 -3
18 -1 40 2 22 4 40 4 40 2 0 -3 -26 -22 -57 -43 -32 -21 -83 -55 -113 -75 -30
-20 -61 -40 -67 -44 -17 -9 -17 9 0 26 6 7 21 30 32 51 11 20 23 37 28 37 4 0
6 4 2 9 -3 5 4 16 15 24 11 7 17 16 14 19 -5 6 35 67 88 138 10 14 39 52 64
85 70 94 198 250 234 285 59 58 162 171 148 164 -24 -13 -230 -216 -285 -282
-27 -31 -64 -74 -82 -95 -19 -21 -42 -47 -50 -58 -9 -12 -26 -33 -38 -49 -13
-15 -23 -31 -23 -35 0 -7 -62 -91 -93 -126 -7 -8 -17 -22 -21 -30 -4 -8 -18
-32 -31 -54 -13 -22 -36 -64 -51 -92 -16 -29 -32 -53 -36 -53 -4 0 -8 2 -8 4
0 19 75 224 86 237 8 8 14 21 14 27 0 7 4 20 9 30 5 9 24 50 42 90 45 100 59
109 59 43 0 -32 4 -50 10 -46 6 3 10 13 10 21 0 36 118 264 137 264 3 0 2 -11
-1 -24 -3 -13 -2 -34 2 -47 8 -20 15 -11 62 74 39 70 64 103 91 122 21 14 43
25 48 25 5 0 11 3 13 8 5 11 57 45 118 76 30 16 64 35 75 42 25 18 49 18 39 2z
m-1471 -275 c23 -9 100 -51 172 -92 154 -89 279 -136 343 -126 23 3 42 9 42
13 0 4 -22 12 -49 19 -56 13 -151 52 -151 62 0 9 124 40 202 51 98 14 131 1
162 -64 37 -78 54 -148 39 -153 -7 -3 -13 -13 -13 -24 0 -10 -4 -19 -10 -19
-5 0 -10 -12 -10 -26 0 -14 -4 -23 -10 -19 -5 3 -10 -2 -10 -12 0 -10 -8 -40
-17 -66 -15 -40 -21 -47 -38 -42 -59 16 -266 56 -375 71 -86 13 -190 18 -335
18 -195 1 -251 -3 -319 -20 -15 -3 -26 -2 -26 4 0 10 71 190 114 286 30 67 88
143 120 157 28 12 116 3 169 -18z m122 -452 c28 -6 -10 -9 -126 -10 -182 -1
-364 -16 -388 -32 -11 -7 4 -8 52 -4 37 3 67 4 67 1 0 -2 -31 -10 -70 -16 -87
-15 -107 -35 -25 -25 38 5 56 4 52 -3 -4 -5 -32 -13 -62 -17 -75 -9 -70 -24 8
-20 l62 4 -67 -16 c-38 -9 -68 -20 -68 -25 0 -5 8 -7 18 -4 9 3 44 7 77 11 69
6 47 -9 -29 -20 -70 -11 -70 -28 0 -21 73 7 59 0 -32 -18 -66 -13 -61 -14 101
-8 94 2 211 1 260 -4 85 -8 77 -9 -145 -17 -129 -4 -255 -9 -280 -10 -40 -2
-45 0 -42 18 6 41 52 181 64 198 9 13 40 21 113 31 112 15 398 19 460 7z
m-742 -59 c16 -15 38 -44 48 -65 18 -34 19 -45 9 -93 -11 -54 -12 -54 -48 -54
-20 0 -75 5 -122 10 -47 6 -114 13 -150 16 -84 7 -91 10 -84 31 13 40 38 89
53 107 30 36 94 76 120 76 14 0 37 6 51 14 31 16 80 0 123 -42z m1912 -2 c3
-5 24 -10 46 -10 52 0 120 -27 99 -40 -12 -7 -5 -18 34 -55 69 -67 110 -159
113 -254 2 -41 -2 -80 -8 -87 -7 -8 -6 -13 3 -16 9 -3 2 -16 -19 -37 -26 -26
-29 -31 -12 -26 30 10 16 -11 -25 -37 -22 -14 -25 -18 -8 -13 32 9 27 -11 -7
-26 -17 -7 -27 -18 -24 -26 3 -7 -6 -17 -21 -23 -14 -5 -26 -13 -26 -18 0 -4
-16 -14 -35 -21 -19 -7 -35 -16 -35 -20 0 -9 -79 -21 -184 -27 -79 -5 -89 -10
-61 -30 46 -33 56 -46 51 -61 -4 -9 1 -24 10 -34 26 -29 1 -23 -26 6 -13 14
-26 23 -29 20 -3 -3 17 -26 44 -50 26 -25 45 -48 42 -52 -4 -3 -21 6 -37 22
-17 16 -30 25 -30 19 0 -5 18 -26 41 -47 22 -21 38 -41 35 -45 -3 -3 -16 4
-29 16 -24 23 -51 32 -29 10 24 -24 10 -25 -95 -6 -60 10 -148 25 -198 33 -49
8 -125 25 -168 37 l-78 22 -32 60 c-55 104 -132 167 -262 214 -46 17 -135 30
-135 21 0 -14 -28 -11 -33 4 -4 9 -8 9 -15 -2 -6 -8 -18 -15 -29 -16 -10 -1
-29 -7 -41 -14 -21 -11 -27 -10 -48 10 -27 25 -34 17 -8 -9 13 -13 14 -17 3
-21 -13 -4 -67 -49 -107 -91 -14 -14 -38 -46 -54 -72 l-29 -47 -34 15 c-39 16
-124 18 -171 5 -31 -9 -33 -7 -50 32 -11 23 -45 69 -76 103 l-57 61 42 14 c23
7 49 14 57 14 8 1 21 4 28 9 23 14 142 16 142 3 0 -8 3 -7 9 2 5 8 32 15 67
17 118 8 140 11 151 17 7 4 15 2 19 -4 4 -7 9 -7 13 -1 12 18 48 23 61 7 7 -8
17 -15 22 -15 6 0 5 7 -3 16 -18 22 3 33 55 29 28 -3 36 -1 26 5 -8 5 -13 10
-10 11 40 6 60 6 60 -1 0 -5 -6 -11 -12 -13 -7 -3 1 -3 19 0 18 3 40 3 49 -1
14 -5 13 -9 -7 -26 -13 -11 -20 -19 -16 -20 5 0 15 7 23 15 21 20 50 12 144
-41 85 -48 104 -52 138 -28 29 20 30 86 2 131 l-19 33 23 24 c16 15 21 27 15
33 -6 6 -4 14 6 23 8 7 19 10 22 6 4 -4 1 -11 -7 -17 -12 -7 -12 -11 -3 -17 9
-6 6 -15 -12 -34 -27 -29 -30 -38 -16 -38 5 0 12 8 16 18 11 32 56 56 112 57
29 1 53 1 53 -1 0 -1 -7 -10 -16 -19 -9 -9 -14 -19 -11 -22 3 -3 13 2 22 11 9
9 13 16 8 16 -4 0 0 5 10 11 26 15 33 3 12 -21 -10 -11 -14 -20 -9 -20 13 1
47 50 34 50 -5 0 -10 4 -10 9 0 11 50 9 68 -3 7 -4 11 -14 8 -21 -3 -8 1 -19
9 -25 15 -13 18 -9 116 149 71 117 140 197 206 243 61 41 116 58 128 38z
m-760 -35 l60 -14 -50 5 c-27 2 -68 11 -90 20 -44 16 -27 14 80 -11z m-66
-161 c8 -7 -64 -2 -89 6 -16 6 -6 7 30 3 30 -3 57 -7 59 -9z m455 10 c14 -5
14 -8 -1 -30 -13 -21 -23 -24 -77 -24 -83 0 -140 -15 -426 -110 -301 -100
-440 -135 -617 -156 -127 -16 -146 -16 -269 -1 -171 22 -307 66 -516 169 -89
43 -184 84 -212 90 -41 8 -46 12 -31 20 25 15 100 14 340 -2 255 -17 273 -17
551 -2 271 15 744 -3 744 -28 0 -9 -286 -102 -395 -129 -110 -27 -282 -51
-365 -51 -105 0 -269 28 -383 65 -56 18 -103 31 -105 30 -6 -6 90 -46 168 -70
114 -36 181 -45 331 -45 244 0 344 21 744 155 254 85 340 108 445 118 19 2 40
5 47 5 6 1 18 -1 27 -4z m-34 -89 c0 -2 -5 -15 -11 -29 -10 -21 -16 -24 -48
-19 -48 8 -50 11 -21 33 22 17 80 28 80 15z m-2049 -26 c27 -12 46 -26 42 -32
-3 -6 -1 -7 6 -3 14 9 51 -2 51 -15 0 -6 -10 -8 -22 -4 -16 4 -19 3 -9 -3 11
-8 11 -11 0 -16 -19 -8 21 0 46 10 16 6 15 3 -5 -14 -14 -12 -20 -21 -13 -22
6 0 15 5 18 10 3 6 11 10 17 10 6 0 5 -7 -3 -17 -12 -15 -12 -16 3 -10 11 4
17 2 15 -5 -1 -6 14 -17 33 -24 l35 -14 -35 5 c-33 5 -33 4 -10 -6 14 -7 33
-11 44 -10 12 2 16 -1 11 -10 -6 -9 -1 -10 19 -5 18 4 25 3 21 -4 -4 -6 4 -10
19 -10 14 0 27 -4 30 -9 6 -9 -85 9 -154 30 -67 21 -186 89 -224 128 -59 61
-28 80 65 40z m1779 -65 c0 -3 -7 -12 -15 -21 -20 -19 -32 -9 -15 12 12 15 30
20 30 9z m83 -4 c-2 -3 -18 -5 -35 -6 -18 -1 -25 1 -18 6 13 8 62 8 53 0z m37
-10 c0 -5 -4 -10 -10 -10 -5 0 -10 5 -10 10 0 6 5 10 10 10 6 0 10 -4 10 -10z
m-207 -14 c6 -14 -29 -54 -38 -44 -3 3 1 11 9 17 8 7 12 19 9 27 -3 8 -1 14 5
14 5 0 12 -6 15 -14z m-1177 -159 c2 -24 1 -25 -12 -12 -17 17 -28 20 -20 6 3
-5 -5 -8 -18 -7 -28 1 -24 19 7 34 31 15 39 10 43 -21z m16 -80 c79 -35 139
-94 178 -175 18 -37 34 -68 36 -70 1 -2 17 4 36 14 43 22 142 23 186 0 17 -9
35 -16 41 -16 5 0 22 21 37 47 45 77 108 138 177 169 56 26 72 29 167 29 92 0
111 -3 154 -25 77 -39 151 -113 187 -186 24 -49 38 -66 58 -70 49 -11 51 -13
51 -56 0 -52 -7 -64 -42 -73 -21 -6 -28 -14 -33 -46 -18 -106 -114 -227 -218
-274 -100 -46 -241 -43 -341 7 -48 25 -137 112 -161 159 -28 52 -45 128 -45
194 0 35 -5 67 -12 74 -11 12 -9 13 7 7 11 -4 16 -3 11 1 -8 8 -17 10 -128 19
-59 5 -72 3 -98 -16 -26 -18 -30 -28 -30 -68 -1 -60 -31 -146 -53 -150 -18 -4
-24 22 -8 32 4 3 14 32 21 65 24 114 -11 233 -91 311 -54 52 -99 75 -171 89
-246 45 -458 -195 -381 -432 21 -68 64 -129 113 -164 40 -28 52 -53 25 -53
-24 0 -120 102 -144 155 -13 27 -28 78 -34 112 -8 51 -14 63 -28 63 -16 0 -19
8 -19 54 0 52 1 54 30 60 21 4 36 16 48 37 53 98 148 175 247 200 57 15 166 3
227 -24z m-37 -59 c14 -6 25 -14 25 -17 0 -3 -41 -69 -90 -146 -49 -77 -119
-189 -156 -248 l-67 -108 -33 32 c-19 18 -34 39 -34 46 0 11 54 102 147 249 7
10 39 61 70 111 62 100 78 109 138 81z m89 -74 c0 -11 -60 -115 -133 -232 -95
-151 -141 -216 -159 -223 -14 -5 -27 -8 -29 -5 -5 4 33 67 175 291 52 83 101
160 109 173 16 27 38 24 37 -4z m343 -185 c32 -10 33 -13 35 -65 1 -30 2 -63
2 -74 1 -19 -7 -21 -97 -25 l-99 -4 7 27 c4 15 9 35 9 44 3 21 16 37 16 18 0
-7 3 -10 6 -7 4 4 1 13 -5 21 -10 11 -10 19 -1 33 11 17 11 17 6 -1 -6 -16 -4
-17 9 -6 9 7 13 15 10 18 -10 10 14 28 42 30 15 1 42 -3 60 -9z m1108 -20 c66
-11 174 -29 240 -40 157 -25 225 -42 266 -65 34 -20 99 -96 99 -116 0 -6 -13
7 -29 29 -56 77 -85 92 -228 114 -70 11 -165 21 -210 22 -46 1 -83 5 -83 10 0
4 -26 7 -57 7 -41 0 -54 -3 -43 -10 12 -8 11 -10 -6 -10 -12 0 -42 3 -68 6
-44 6 -46 8 -46 40 0 41 1 42 165 13z m413 -151 c7 -7 12 -16 12 -20 0 -15
-15 -8 -28 12 -13 22 -3 27 16 8z m-2331 -152 c12 -13 29 -28 39 -34 16 -9 15
-14 -19 -51 -80 -89 -122 -254 -82 -330 9 -18 14 -35 11 -39 -4 -3 -34 -4 -68
-3 -44 2 -66 7 -75 19 -16 22 -16 77 2 127 20 54 19 61 -5 40 -12 -11 -20 -13
-20 -6 0 17 38 90 66 128 28 37 30 45 9 37 -30 -12 -13 18 43 76 32 33 63 60
68 60 6 0 20 -11 31 -24z m513 8 c59 -24 54 -49 -12 -69 -92 -27 -227 -16
-268 21 -52 49 179 88 280 48z m1955 -132 c-6 -6 -54 51 -54 63 0 6 13 -5 29
-24 16 -19 28 -37 25 -39z m-15 -14 c27 -28 48 -54 44 -57 -3 -3 -9 1 -13 8
-5 7 -14 11 -19 7 -7 -4 -3 -23 13 -53 28 -52 29 -53 15 -53 -5 0 -10 7 -10
15 0 8 -4 15 -10 15 -13 0 -13 -3 3 -32 7 -14 19 -23 27 -20 9 3 6 -4 -7 -17
-23 -21 -47 -31 -25 -9 8 8 6 18 -10 41 -17 24 -18 31 -7 38 12 7 11 14 -4 41
-12 21 -15 34 -8 36 15 5 14 15 -6 38 -64 70 -51 72 17 2z m-2933 -70 c119
-44 198 -160 191 -280 l-3 -53 -85 3 c-47 1 -121 11 -165 21 -68 15 -80 21
-78 37 1 10 0 13 -3 7 -4 -9 -35 -14 -97 -15 l-92 -2 95 -5 95 -6 -3 -27 c-1
-15 -13 -60 -27 -100 -18 -57 -28 -73 -42 -71 -17 1 -17 0 2 -13 18 -13 18
-15 3 -30 -15 -15 -19 -15 -50 4 -118 74 -171 207 -133 337 13 48 28 69 78
120 95 93 197 117 314 73z m2913 3 c0 -5 3 -18 6 -28 6 -16 5 -16 -9 2 -19 23
-21 35 -7 35 6 0 10 -4 10 -9z m-2652 -23 c-6 -18 -28 -21 -28 -4 0 9 7 16 16
16 9 0 14 -5 12 -12z m2692 -218 c-7 -4 -9 -16 -5 -29 3 -12 2 -21 -4 -21 -5
0 -13 9 -16 20 -7 23 12 53 27 44 6 -4 6 -9 -2 -14z m-36 -46 c3 -9 4 -20 1
-25 -3 -4 2 -20 11 -34 9 -14 15 -28 12 -30 -3 -3 -11 6 -18 20 -15 27 -40 34
-40 10 0 -8 7 -15 15 -15 8 0 15 -4 15 -10 0 -11 -29 -14 -31 -2 -4 20 -5 85
-2 75 5 -15 33 -17 33 -3 0 6 -4 10 -10 10 -5 0 -10 5 -10 10 0 16 17 12 24
-6z m-2291 -10 c20 -4 37 -10 37 -13 0 -21 -423 -45 -442 -26 -3 3 -3 17 0 32
l5 26 181 -6 c100 -4 198 -9 219 -13z m2327 -24 c0 -5 -5 -10 -11 -10 -5 0 -7
5 -4 10 3 6 8 10 11 10 2 0 4 -4 4 -10z m-2950 -32 c137 -23 547 -14 681 14
12 3 49 -84 68 -162 5 -19 23 -89 40 -154 18 -66 36 -153 41 -193 19 -146 -21
-286 -109 -385 -37 -42 -160 -138 -176 -138 -4 0 -37 -21 -74 -47 -70 -48
-114 -103 -126 -161 -4 -17 -9 -32 -12 -32 -9 0 -96 75 -141 123 -25 26 -91
75 -146 109 -185 113 -272 224 -295 375 -18 118 8 254 126 656 3 13 11 17 26
13 12 -3 56 -11 97 -18z m2970 3 c0 -6 -4 -13 -10 -16 -5 -3 -10 1 -10 9 0 9
5 16 10 16 6 0 10 -4 10 -9z m-110 -21 c0 -5 -4 -10 -10 -10 -5 0 -10 5 -10
10 0 6 5 10 10 10 6 0 10 -4 10 -10z m-30 -26 c0 -8 -4 -12 -10 -9 -5 3 -10
10 -10 16 0 5 5 9 10 9 6 0 10 -7 10 -16z m30 -20 c0 -8 -5 -12 -10 -9 -6 4
-8 11 -5 16 9 14 15 11 15 -7z m40 -4 c0 -5 -4 -10 -10 -10 -5 0 -10 5 -10 10
0 6 5 10 10 10 6 0 10 -4 10 -10z m-70 -20 c0 -5 -5 -10 -11 -10 -5 0 -7 5 -4
10 3 6 8 10 11 10 2 0 4 -4 4 -10z m30 -20 c0 -5 -4 -10 -10 -10 -5 0 -10 5
-10 10 0 6 5 10 10 10 6 0 10 -4 10 -10z m-33 -82 c-3 -8 -6 -5 -6 6 -1 11 2
17 5 13 3 -3 4 -12 1 -19z m-120 -33 c-1 -19 -5 -35 -9 -35 -4 0 -8 -5 -8 -11
0 -6 10 -8 23 -5 12 3 16 3 10 0 -7 -3 -13 -12 -13 -19 0 -7 -6 -15 -12 -18
-10 -3 -10 -7 -1 -19 10 -12 9 -19 -7 -36 -11 -11 -17 -27 -15 -34 3 -8 -4
-24 -15 -36 -28 -29 -36 -28 -16 3 9 13 16 36 16 50 0 14 7 28 15 31 13 5 13
9 3 22 -10 12 -10 16 0 19 15 6 16 33 1 33 -6 0 -7 5 -2 13 4 6 8 19 9 27 3
43 5 50 13 50 5 0 9 -16 8 -35z m90 13 c-3 -8 -6 -5 -6 6 -1 11 2 17 5 13 3
-3 4 -12 1 -19z m-57 -12 c0 -3 -4 -8 -10 -11 -5 -3 -10 -1 -10 4 0 6 5 11 10
11 6 0 10 -2 10 -4z m28 -16 c-7 -11 -16 -20 -20 -20 -5 0 -3 9 4 20 7 11 16
20 20 20 5 0 3 -9 -4 -20z m32 -7 c0 -5 -8 -17 -17 -28 -14 -18 -15 -18 -9 -2
3 10 6 23 6 28 0 5 5 9 10 9 6 0 10 -3 10 -7z m-57 -63 c-5 -19 -23 -29 -23
-12 0 7 20 32 26 32 1 0 0 -9 -3 -20z m-9 -55 c-4 -8 -11 -15 -16 -15 -6 0 -5
6 2 15 7 8 14 15 16 15 2 0 1 -7 -2 -15z m-144 -44 c0 -6 -5 -13 -11 -16 -6
-4 -8 -13 -5 -21 3 -8 0 -11 -10 -7 -16 6 -19 23 -4 23 6 0 10 7 10 15 0 8 5
15 10 15 6 0 10 -4 10 -9z m35 -22 c-9 -17 -19 -28 -22 -25 -8 8 17 56 29 56
5 0 1 -14 -7 -31z m-1702 -145 c14 -17 30 -50 36 -73 5 -23 21 -57 36 -77 32
-42 29 -55 -5 -19 -13 14 -32 25 -43 25 -18 0 -17 -3 7 -34 43 -57 30 -50 -34
16 l-59 63 0 105 -1 105 19 -40 c10 -22 30 -54 44 -71z m1647 96 c0 -5 -8 -13
-17 -19 -13 -7 -15 -13 -7 -21 8 -8 17 -3 32 22 26 39 29 29 5 -13 -20 -33
-21 -34 -47 -14 -19 14 -19 15 -1 35 19 21 35 26 35 10z m-58 -97 c-11 -15
-35 -41 -53 -58 -29 -26 -26 -15 6 21 6 7 21 26 35 43 30 37 40 33 12 -6z
m-92 -97 c0 -3 -4 -8 -10 -11 -5 -3 -10 -1 -10 4 0 6 5 11 10 11 6 0 10 -2 10
-4z m-1527 -123 c48 -64 81 -122 73 -130 -3 -3 -34 -15 -70 -28 -78 -27 -150
-74 -154 -100 -2 -11 -39 -56 -81 -100 -42 -44 -91 -98 -109 -120 -22 -26 -35
-35 -39 -27 -12 29 -59 76 -90 88 -18 8 -33 20 -33 28 0 22 79 89 170 141 107
63 217 170 253 248 15 31 29 57 32 57 2 0 24 -26 48 -57z m147 -13 c0 -5 -4
-10 -10 -10 -5 0 -10 5 -10 10 0 6 5 10 10 10 6 0 10 -4 10 -10z m1400 1 c0
-5 -7 -12 -16 -15 -14 -5 -15 -4 -4 9 14 17 20 19 20 6z m-1370 -65 c0 -6 -7
-1 -15 10 -8 10 -15 23 -15 28 0 6 7 1 15 -10 8 -10 15 -23 15 -28z m1384 29
c-7 -16 -24 -21 -24 -6 0 8 7 13 27 20 1 1 0 -6 -3 -14z m-1294 -35 c0 -5 -4
-10 -10 -10 -5 0 -10 5 -10 10 0 6 5 10 10 10 6 0 10 -4 10 -10z m1280 0 c0
-5 -2 -10 -4 -10 -3 0 -8 5 -11 10 -3 6 -1 10 4 10 6 0 11 -4 11 -10z m-1250
-30 c8 -5 11 -12 7 -16 -4 -4 -15 0 -24 9 -18 18 -8 23 17 7z m-985 -318 c70
-36 107 -91 119 -176 8 -61 -8 -128 -29 -120 -8 4 -15 1 -15 -5 0 -6 5 -11 10
-11 6 0 10 -5 10 -11 0 -6 -7 -8 -16 -5 -12 4 -14 1 -9 -14 5 -16 3 -19 -11
-13 -13 5 -16 3 -11 -10 3 -9 2 -17 -4 -17 -5 0 -13 -8 -16 -17 -12 -31 -60
-76 -67 -64 -4 6 -2 11 3 11 6 0 11 5 11 11 0 8 -5 8 -15 -1 -8 -7 -15 -16
-15 -21 0 -16 -36 -45 -49 -41 -7 2 -17 -1 -21 -9 -6 -10 -12 -10 -22 -1 -11
8 -17 7 -26 -9 -15 -23 -37 -26 -28 -3 5 14 4 15 -9 4 -22 -18 -18 -35 10 -48
14 -6 25 -18 25 -26 0 -7 9 -16 21 -19 15 -4 19 -2 15 10 -4 9 -1 13 6 11 7
-3 13 -11 13 -19 0 -9 -16 -16 -45 -20 -41 -5 -42 -6 -10 -7 19 -1 50 2 68 7
20 6 32 6 32 0 0 -5 -4 -9 -10 -9 -5 0 -10 -5 -10 -11 0 -6 9 -8 20 -4 22 7
28 -10 8 -19 -7 -3 0 -2 16 1 22 4 28 2 24 -8 -2 -8 -31 -20 -64 -27 -32 -7
-84 -18 -116 -26 -31 -7 -60 -11 -66 -7 -18 12 -123 227 -144 296 -61 204 21
395 197 458 64 23 164 18 220 -11z m205 -37 c63 -32 81 -135 40 -219 -12 -26
-26 -46 -31 -46 -5 0 -9 2 -9 4 0 2 -3 13 -6 23 -5 15 -4 15 5 3 5 -8 13 -11
17 -7 4 3 1 13 -6 22 -10 12 -16 13 -26 4 -10 -8 -14 -8 -14 -1 0 6 5 14 10
17 6 3 10 11 10 16 0 6 -5 7 -11 3 -7 -4 -9 0 -5 13 3 11 -1 39 -9 63 -21 58
-20 120 2 120 2 0 17 -7 33 -15z m0 -289 c0 -5 -7 -1 -15 10 -8 10 -14 24 -14
29 0 6 6 1 14 -9 8 -11 15 -24 15 -30z m236 -77 c1 -20 -2 -27 -9 -20 -11 11
-37 -10 -37 -30 0 -9 4 -8 15 1 18 15 19 7 3 -19 -11 -18 -12 -18 -25 5 -11
23 -10 28 19 60 17 19 32 34 32 34 1 0 1 -14 2 -31z m-314 -112 c3 -92 8 -122
27 -161 21 -43 69 -86 96 -86 6 0 3 4 -5 10 -30 18 -2 19 85 1 118 -25 147
-37 143 -58 -9 -47 -209 -78 -447 -71 -269 9 -405 57 -287 102 23 9 77 22 120
30 64 11 74 11 65 0 -15 -18 9 -19 31 -1 55 43 83 116 92 247 4 52 32 52 36 1
1 -22 7 -51 12 -63 6 -17 9 3 9 70 1 50 5 92 10 92 5 0 10 -51 13 -113z m64
37 c11 -27 12 -40 4 -48 -8 -8 -9 -6 -5 7 4 10 2 17 -5 17 -6 0 -9 4 -6 9 3 5
-1 14 -9 21 -8 7 -12 16 -9 21 9 15 14 10 30 -27z m154 16 c0 -5 -4 -10 -10
-10 -5 0 -10 5 -10 10 0 6 5 10 10 10 6 0 10 -4 10 -10z m-104 -97 c-4 -4 -11
-1 -16 7 -16 25 -11 35 7 17 9 -9 13 -20 9 -24z m101 15 c-3 -8 -6 -5 -6 6 -1
11 2 17 5 13 3 -3 4 -12 1 -19z m23 -23 c0 -3 -11 -17 -25 -31 -29 -29 -33
-23 -7 11 16 23 32 32 32 20z m-466 -21 c9 -24 2 -26 -12 -4 -7 11 -8 20 -3
20 5 0 12 -7 15 -16z m376 6 c0 -5 -5 -10 -11 -10 -7 0 -18 -8 -26 -17 -8 -10
-13 -13 -10 -8 2 6 7 18 10 28 7 18 37 24 37 7z m-301 -75 c0 -5 -6 -1 -14 9
-8 11 -15 24 -15 30 0 5 7 1 15 -10 8 -10 14 -23 14 -29z m271 -5 c-12 -16
-24 -30 -26 -30 -3 0 4 14 16 30 12 17 24 30 26 30 3 0 -4 -13 -16 -30z m31
-3 c-10 -9 -11 -8 -5 6 3 10 9 15 12 12 3 -3 0 -11 -7 -18z m-156 -257 c3 -5
1 -10 -4 -10 -6 0 -11 5 -11 10 0 6 2 10 4 10 3 0 8 -4 11 -10z m40 0 c3 -5 1
-10 -4 -10 -6 0 -11 5 -11 10 0 6 2 10 4 10 3 0 8 -4 11 -10z m35 0 c0 -5 -2
-10 -4 -10 -3 0 -8 5 -11 10 -3 6 -1 10 4 10 6 0 11 -4 11 -10z"/>
<path d="M3455 5560 c-3 -5 -1 -10 4 -10 6 0 11 5 11 10 0 6 -2 10 -4 10 -3 0
-8 -4 -11 -10z"/>
<path d="M3388 5533 c7 -3 16 -2 19 1 4 3 -2 6 -13 5 -11 0 -14 -3 -6 -6z"/>
<path d="M3355 5520 c-3 -5 -1 -10 4 -10 6 0 11 5 11 10 0 6 -2 10 -4 10 -3 0
-8 -4 -11 -10z"/>
<path d="M2390 5564 c28 -19 54 -34 56 -31 6 5 -85 67 -99 67 -5 0 14 -16 43
-36z"/>
<path d="M1980 5529 c0 -5 5 -7 10 -4 6 3 10 8 10 11 0 2 -4 4 -10 4 -5 0 -10
-5 -10 -11z"/>
<path d="M2728 5533 c7 -3 16 -2 19 1 4 3 -2 6 -13 5 -11 0 -14 -3 -6 -6z"/>
<path d="M1950 5475 c0 -8 2 -15 4 -15 2 0 6 7 10 15 3 8 1 15 -4 15 -6 0 -10
-7 -10 -15z"/>
<path d="M2970 5441 c0 -6 5 -13 10 -16 6 -3 10 1 10 9 0 9 -4 16 -10 16 -5 0
-10 -4 -10 -9z"/>
<path d="M1920 5409 c0 -5 5 -7 10 -4 6 3 10 8 10 11 0 2 -4 4 -10 4 -5 0 -10
-5 -10 -11z"/>
<path d="M2758 5253 c7 -3 16 -2 19 1 4 3 -2 6 -13 5 -11 0 -14 -3 -6 -6z"/>
<path d="M2810 5240 c20 -13 33 -13 25 0 -3 6 -14 10 -23 10 -15 0 -15 -2 -2
-10z"/>
<path d="M3620 4923 c-13 -3 -35 -13 -48 -23 -13 -11 -29 -17 -37 -14 -8 4
-20 -7 -30 -26 -10 -19 -22 -30 -30 -26 -8 3 -17 -3 -20 -15 -4 -11 -17 -26
-30 -35 -13 -8 -26 -26 -29 -39 -4 -16 -11 -22 -21 -19 -10 4 -15 0 -15 -14 0
-12 -11 -42 -25 -68 -14 -26 -25 -53 -25 -60 0 -35 130 -29 213 9 62 29 94 53
85 62 -7 7 -86 -13 -105 -27 -6 -5 -14 -5 -18 2 -3 5 -1 10 5 10 18 0 70 42
64 52 -3 5 -15 6 -26 2 -21 -6 -21 -6 1 24 29 41 26 54 -4 17 -14 -16 -25 -25
-25 -20 1 19 25 42 75 69 28 15 54 32 60 37 5 5 17 9 27 9 10 0 18 5 18 10 0
13 -39 13 -79 -1 -50 -18 -46 -6 13 37 72 51 73 59 6 47z m-160 -303 c-18 -12
-30 -13 -30 -2 0 4 10 9 22 9 18 2 20 0 8 -7z"/>
<path d="M3503 4908 c-6 -7 -16 -24 -22 -38 -12 -24 -12 -24 4 -5 20 24 37 55
32 55 -3 0 -9 -6 -14 -12z"/>
<path d="M3391 4804 c0 -11 3 -14 6 -6 3 7 2 16 -1 19 -3 4 -6 -2 -5 -13z"/>
<path d="M3421 4804 c0 -11 3 -14 6 -6 3 7 2 16 -1 19 -3 4 -6 -2 -5 -13z"/>
<path d="M2865 4771 c3 -5 -2 -11 -10 -13 -14 -3 -13 -5 3 -19 18 -15 19 -14
19 13 0 15 -4 28 -9 28 -5 0 -7 -4 -3 -9z"/>
<path d="M2902 4768 c-14 -14 -16 -28 -3 -28 9 0 24 30 18 36 -2 2 -9 -2 -15
-8z"/>
<path d="M3020 4755 c-8 -9 -8 -15 -2 -15 12 0 26 19 19 26 -2 2 -10 -2 -17
-11z"/>
<path d="M3555 4729 c-4 -6 -5 -12 -2 -15 2 -3 7 2 10 11 7 17 1 20 -8 4z"/>
<path d="M2810 4710 c0 -5 5 -10 10 -10 6 0 10 5 10 10 0 6 -4 10 -10 10 -5 0
-10 -4 -10 -10z"/>
<path d="M2850 4710 c0 -5 5 -10 11 -10 5 0 7 5 4 10 -3 6 -8 10 -11 10 -2 0
-4 -4 -4 -10z"/>
<path d="M2895 4710 c-3 -5 -1 -10 4 -10 6 0 11 5 11 10 0 6 -2 10 -4 10 -3 0
-8 -4 -11 -10z"/>
<path d="M2320 4635 c7 -8 17 -15 22 -15 5 0 3 7 -6 15 -8 8 -18 15 -22 15 -3
0 -1 -7 6 -15z"/>
<path d="M2387 4636 c-4 -10 -1 -13 9 -9 7 3 14 9 14 14 0 14 -17 10 -23 -5z"/>
<path d="M2429 4633 c-13 -17 -13 -17 6 -3 11 8 22 16 24 17 2 2 0 3 -6 3 -6
0 -17 -8 -24 -17z"/>
<path d="M2275 4604 c24 -24 26 -24 42 -8 16 16 16 16 -4 10 -13 -4 -25 -1
-33 9 -7 8 -17 15 -22 15 -5 0 3 -12 17 -26z"/>
<path d="M2570 4599 c0 -5 5 -7 10 -4 6 3 10 8 10 11 0 2 -4 4 -10 4 -5 0 -10
-5 -10 -11z"/>
<path d="M1829 4570 c-19 -16 -31 -29 -28 -30 3 0 16 9 28 19 13 11 28 22 34
24 7 2 9 7 6 10 -3 4 -21 -7 -40 -23z"/>
<path d="M2033 4585 c-10 -11 -6 -13 23 -11 37 3 52 12 40 23 -4 4 -12 1 -17
-7 -8 -11 -12 -12 -16 -2 -6 15 -15 15 -30 -3z"/>
<path d="M2122 4588 c-7 -7 -12 -16 -12 -21 0 -5 7 -1 16 8 9 9 14 18 12 20
-2 3 -10 -1 -16 -7z"/>
<path d="M1885 4579 c-11 -16 -1 -19 13 -3 7 8 8 14 3 14 -5 0 -13 -5 -16 -11z"/>
<path d="M1970 4570 c-8 -5 -12 -11 -10 -14 3 -2 14 2 24 10 22 15 10 19 -14
4z"/>
<path d="M2230 4570 c0 -5 5 -10 11 -10 5 0 7 5 4 10 -3 6 -8 10 -11 10 -2 0
-4 -4 -4 -10z"/>
<path d="M2085 4550 c3 -5 8 -10 11 -10 2 0 4 5 4 10 0 6 -5 10 -11 10 -5 0
-7 -4 -4 -10z"/>
<path d="M3670 4550 c0 -5 5 -10 10 -10 6 0 10 5 10 10 0 6 -4 10 -10 10 -5 0
-10 -4 -10 -10z"/>
<path d="M1970 4530 c-8 -5 -10 -10 -5 -10 6 0 17 5 25 10 8 5 11 10 5 10 -5
0 -17 -5 -25 -10z"/>
<path d="M3500 4470 c0 -5 5 -10 10 -10 6 0 10 5 10 10 0 6 -4 10 -10 10 -5 0
-10 -4 -10 -10z"/>
<path d="M3448 4453 c7 -3 16 -2 19 1 4 3 -2 6 -13 5 -11 0 -14 -3 -6 -6z"/>
<path d="M2395 4860 c-25 -11 1 -11 35 0 20 6 21 8 5 8 -11 0 -29 -3 -40 -8z"/>
<path d="M2348 4843 c7 -3 16 -2 19 1 4 3 -2 6 -13 5 -11 0 -14 -3 -6 -6z"/>
<path d="M2288 4823 c7 -3 16 -2 19 1 4 3 -2 6 -13 5 -11 0 -14 -3 -6 -6z"/>
<path d="M2359 4502 c-147 -53 -249 -191 -249 -336 0 -101 63 -226 143 -283
73 -53 122 -68 217 -68 71 1 94 5 140 28 211 102 273 365 129 548 -84 107
-254 156 -380 111z m215 -45 c-1 -5 -25 -45 -53 -90 -29 -45 -99 -158 -157
-252 -58 -93 -108 -172 -110 -174 -3 -3 -11 2 -20 11 -14 14 -2 38 131 254 81
132 152 245 158 252 11 14 53 13 51 -1z m103 -59 c18 -18 33 -35 33 -40 0 -4
-32 -58 -72 -120 -39 -62 -89 -142 -110 -177 -122 -197 -127 -203 -156 -196
-15 3 -37 13 -50 21 -27 17 -35 -1 95 209 190 306 208 334 218 335 5 0 24 -14
42 -32z"/>
<path d="M2978 4173 c12 -2 32 -2 45 0 12 2 2 4 -23 4 -25 0 -35 -2 -22 -4z"/>
<path d="M1083 3754 c-6 -16 19 -44 38 -44 11 0 21 38 14 50 -10 16 -45 12
-52 -6z m38 -17 c-13 -13 -26 -3 -16 12 3 6 11 8 17 5 6 -4 6 -10 -1 -17z"/>
<path d="M1046 3623 c-3 -4 -6 -15 -6 -25 0 -24 33 -21 38 3 3 17 -21 33 -32
22z"/>
<path d="M1014 3519 c-8 -14 18 -31 30 -19 9 9 0 30 -14 30 -5 0 -12 -5 -16
-11z"/>
<path d="M535 3660 c-3 -5 3 -10 15 -10 12 0 18 5 15 10 -3 6 -10 10 -15 10
-5 0 -12 -4 -15 -10z"/>
<path d="M605 3660 c-3 -5 -1 -10 4 -10 6 0 11 5 11 10 0 6 -2 10 -4 10 -3 0
-8 -4 -11 -10z"/>
<path d="M670 3660 c0 -5 7 -10 16 -10 8 0 12 5 9 10 -3 6 -10 10 -16 10 -5 0
-9 -4 -9 -10z"/>
<path d="M471 3630 c-30 -26 -14 -26 19 0 14 11 21 20 15 19 -5 0 -21 -9 -34
-19z"/>
<path d="M723 3626 c7 -14 15 -26 20 -26 13 0 7 17 -13 35 -19 17 -19 17 -7
-9z"/>
<path d="M582 3620 c0 -14 2 -19 5 -12 2 6 2 18 0 25 -3 6 -5 1 -5 -13z"/>
<path d="M440 3586 c0 -9 5 -16 10 -16 6 0 10 4 10 9 0 6 -4 13 -10 16 -5 3
-10 -1 -10 -9z"/>
<path d="M760 3590 c0 -5 7 -10 15 -10 8 0 15 5 15 10 0 6 -7 10 -15 10 -8 0
-15 -4 -15 -10z"/>
<path d="M386 3535 c-19 -28 -20 -35 -6 -35 6 0 10 5 10 12 0 6 7 20 17 30 9
10 11 18 6 18 -6 0 -18 -11 -27 -25z"/>
<path d="M596 3534 c-4 -14 -5 -29 -2 -31 3 -3 8 7 12 21 3 15 4 29 1 32 -2 3
-8 -7 -11 -22z"/>
<path d="M826 3545 c3 -11 9 -33 13 -50 4 -19 10 -25 14 -18 4 7 -2 29 -13 50
-12 21 -18 29 -14 18z"/>
<path d="M495 3520 c21 -24 26 -25 19 -6 -3 8 -13 17 -22 21 -13 5 -13 2 3
-15z"/>
<path d="M367 3483 c-10 -10 -8 -55 2 -49 5 3 9 17 9 31 0 27 -1 28 -11 18z"/>
<path d="M798 3453 c6 -2 18 -2 25 0 6 3 1 5 -13 5 -14 0 -19 -2 -12 -5z"/>
<path d="M730 3440 c8 -5 22 -9 30 -9 10 0 8 3 -5 9 -27 12 -43 12 -25 0z"/>
<path d="M852 3404 c-1 -13 3 -24 8 -24 12 0 14 37 2 44 -4 2 -9 -6 -10 -20z"/>
<path d="M365 3379 c-4 -6 -5 -12 -2 -15 2 -3 7 2 10 11 7 17 1 20 -8 4z"/>
<path d="M377 3320 c3 -10 12 -25 21 -32 13 -11 12 -8 -2 20 -19 36 -27 41
-19 12z"/>
<path d="M454 3249 c-3 -6 0 -18 9 -26 13 -13 14 -12 10 11 -6 29 -9 31 -19
15z"/>
<path d="M610 3276 c0 -67 6 -96 20 -96 5 0 4 16 -2 37 -5 20 -7 56 -3 80 4
28 2 43 -4 43 -7 0 -11 -26 -11 -64z"/>
<path d="M862 3260 c-29 -46 -109 -109 -139 -110 -16 0 -17 -32 -1 -48 17 -17
33 -15 19 2 -10 12 -4 19 31 40 24 13 62 32 86 42 55 21 79 11 118 -50 28 -44
44 -57 44 -37 0 6 -4 13 -10 16 -20 13 -10 35 16 35 23 0 25 -3 20 -25 -4 -14
-5 -25 -3 -25 2 0 31 28 65 61 45 46 66 60 79 55 31 -12 124 -70 150 -93 28
-27 35 -29 27 -8 -7 17 6 19 55 9 17 -4 31 -10 31 -15 0 -10 -100 -39 -142
-40 -18 0 -42 -5 -53 -10 -14 -7 -2 -8 43 -5 34 2 62 2 62 0 0 -3 -8 -17 -17
-32 -9 -15 -17 -28 -18 -29 0 -1 -32 14 -70 33 l-70 34 -193 0 c-126 0 -191
-3 -187 -10 4 -6 54 -10 116 -10 l109 0 -6 -27 c-12 -49 -23 -62 -75 -89 -28
-14 -53 -24 -54 -22 -7 7 11 24 38 36 15 7 25 17 22 22 -4 6 -21 2 -45 -10
-46 -23 -58 -39 -39 -51 18 -11 -27 -28 -54 -21 -25 7 -97 98 -104 134 -3 15
-9 28 -14 28 -34 0 37 -131 89 -166 37 -26 69 -21 156 23 69 35 96 65 96 108
l0 35 55 0 c30 0 55 -4 55 -10 0 -5 -9 -10 -21 -10 -11 0 -18 -4 -14 -9 3 -5
-13 -39 -36 -76 -55 -87 -57 -136 -8 -177 64 -54 136 -88 183 -88 44 0 46 2
87 61 22 33 50 80 60 105 22 49 18 66 -29 116 l-26 28 23 45 c19 39 27 46 62
51 27 5 39 12 39 23 0 30 -15 38 -74 46 -44 5 -76 17 -121 46 -78 49 -109 50
-162 4 -56 -47 -110 -49 -160 -4 -29 24 -41 29 -65 24 l-29 -7 25 41 c14 22
26 45 26 51 0 23 -19 7 -48 -40z m344 -255 c-5 -15 21 -42 31 -32 3 4 0 13 -7
22 -7 8 -9 15 -6 15 19 0 108 -53 140 -83 34 -33 35 -36 24 -68 -24 -73 -100
-169 -133 -169 -20 0 -105 36 -115 49 -3 3 -22 17 -42 31 -60 40 -58 67 15
180 33 51 43 60 45 43 3 -21 -21 -74 -54 -120 -10 -14 -12 -23 -5 -23 19 0 63
77 68 122 6 43 19 62 36 51 4 -3 6 -11 3 -18z"/>
<path d="M1250 2961 c0 -10 61 -41 82 -41 7 0 -5 11 -27 25 -43 26 -55 30 -55
16z"/>
<path d="M1317 2829 c-19 -22 -38 -56 -42 -76 -8 -42 -2 -52 12 -20 30 66 39
80 61 102 12 13 19 26 13 29 -5 3 -25 -12 -44 -35z"/>
<path d="M1105 2780 c3 -5 12 -10 19 -10 7 0 32 -14 55 -31 24 -17 45 -28 49
-25 8 8 -28 46 -60 62 -31 16 -72 19 -63 4z"/>
<path d="M580 3184 c0 -8 5 -12 10 -9 6 4 8 11 5 16 -9 14 -15 11 -15 -7z"/>
<path d="M1160 3180 c0 -6 -12 -29 -26 -51 -30 -48 -27 -62 4 -20 21 29 39 81
28 81 -3 0 -6 -5 -6 -10z"/>
<path d="M1220 3166 c0 -2 8 -10 18 -17 15 -13 16 -12 3 4 -13 16 -21 21 -21
13z"/>
<path d="M556 3126 c-4 -21 -6 -39 -4 -41 2 -1 23 -5 48 -8 41 -6 42 -5 18 5
-33 14 -37 28 -8 28 11 0 20 5 20 10 0 6 -10 10 -21 10 -12 0 -27 7 -34 17
-11 14 -13 11 -19 -21z"/>
<path d="M824 3134 c-18 -14 -18 -14 6 -3 31 14 36 19 24 19 -6 0 -19 -7 -30
-16z"/>
<path d="M665 3060 c29 -13 104 -13 85 0 -8 5 -35 9 -60 9 -34 0 -40 -2 -25
-9z"/>
<path d="M541 3034 c0 -11 3 -14 6 -6 3 7 2 16 -1 19 -3 4 -6 -2 -5 -13z"/>
<path d="M772 2969 c18 -35 33 -58 36 -51 5 16 -39 105 -55 110 -7 2 2 -25 19
-59z"/>
<path d="M1420 3020 c0 -5 7 -10 15 -10 8 0 15 5 15 10 0 6 -7 10 -15 10 -8 0
-15 -4 -15 -10z"/>
<path d="M1065 2990 c-3 -5 -1 -10 4 -10 6 0 11 5 11 10 0 6 -2 10 -4 10 -3 0
-8 -4 -11 -10z"/>
<path d="M511 2914 c0 -11 3 -14 6 -6 3 7 2 16 -1 19 -3 4 -6 -2 -5 -13z"/>
<path d="M1440 2901 c0 -6 5 -13 10 -16 6 -3 10 1 10 9 0 9 -4 16 -10 16 -5 0
-10 -4 -10 -9z"/>
<path d="M692 2854 c2 -10 -3 -19 -9 -21 -7 -3 -13 3 -13 12 0 9 -5 13 -10 10
-8 -5 -7 -11 1 -21 15 -19 35 -18 43 2 9 23 7 34 -4 34 -6 0 -10 -7 -8 -16z"/>
<path d="M1512 2830 c0 -19 2 -27 5 -17 2 9 2 25 0 35 -3 9 -5 1 -5 -18z"/>
<path d="M832 2823 c-65 -34 -152 -122 -152 -156 0 -50 119 -189 174 -203 33
-8 97 29 165 95 63 61 67 96 20 161 -46 63 -116 130 -137 130 -10 0 -42 -12
-70 -27z m108 -26 c66 -61 110 -123 110 -154 0 -28 -36 -70 -96 -111 -66 -44
-78 -49 -97 -45 -44 11 -157 136 -157 174 0 38 147 169 190 169 8 0 31 -15 50
-33z"/>
<path d="M808 2754 c-62 -51 -66 -56 -43 -48 24 9 77 51 88 70 13 22 2 17 -45
-22z"/>
<path d="M910 2776 c0 -18 65 -102 84 -109 25 -10 19 3 -24 49 -22 24 -40 50
-40 59 0 8 -4 15 -10 15 -5 0 -10 -6 -10 -14z"/>
<path d="M730 2643 c0 -5 13 -16 29 -25 17 -9 39 -35 51 -57 18 -36 40 -54 40
-33 0 12 -52 86 -75 104 -21 18 -45 24 -45 11z"/>
<path d="M936 2579 c-50 -44 -86 -95 -49 -68 53 38 126 109 112 109 -9 0 -37
-18 -63 -41z"/>
<path d="M501 2824 c0 -11 3 -14 6 -6 3 7 2 16 -1 19 -3 4 -6 -2 -5 -13z"/>
<path d="M530 2808 c0 -19 2 -20 10 -8 13 19 13 30 0 30 -5 0 -10 -10 -10 -22z"/>
<path d="M562 2810 c0 -14 2 -19 5 -12 2 6 2 18 0 25 -3 6 -5 1 -5 -13z"/>
<path d="M497 2743 c-3 -5 -1 -17 4 -28 7 -17 8 -17 8 8 1 27 -4 34 -12 20z"/>
<path d="M1512 2710 c0 -19 2 -27 5 -17 2 9 2 25 0 35 -3 9 -5 1 -5 -18z"/>
<path d="M1392 2698 c2 -15 11 -24 26 -26 12 -2 22 1 22 6 0 5 -8 9 -17 8 -11
0 -17 6 -17 17 1 9 -3 17 -8 17 -5 0 -8 -10 -6 -22z"/>
<path d="M1425 2710 c3 -5 8 -10 11 -10 2 0 4 5 4 10 0 6 -5 10 -11 10 -5 0
-7 -4 -4 -10z"/>
<path d="M511 2654 c0 -11 3 -14 6 -6 3 7 2 16 -1 19 -3 4 -6 -2 -5 -13z"/>
<path d="M1426 2633 c-11 -11 -6 -23 9 -23 8 0 15 4 15 9 0 13 -16 22 -24 14z"/>
<path d="M1337 2615 c-4 -8 -2 -17 3 -20 6 -4 10 3 10 14 0 25 -6 27 -13 6z"/>
<path d="M1363 2608 c-2 -16 1 -18 10 -9 7 7 8 14 1 21 -6 6 -10 2 -11 -12z"/>
<path d="M550 2565 c0 -5 5 -17 10 -25 5 -8 10 -10 10 -5 0 6 -5 17 -10 25 -5
8 -10 11 -10 5z"/>
<path d="M1111 2544 c0 -11 3 -14 6 -6 3 7 2 16 -1 19 -3 4 -6 -2 -5 -13z"/>
<path d="M680 2521 c0 -6 5 -13 10 -16 6 -3 10 1 10 9 0 9 -4 16 -10 16 -5 0
-10 -4 -10 -9z"/>
<path d="M1346 2521 c-4 -6 -2 -11 3 -11 6 0 11 -5 11 -11 0 -6 -7 -9 -15 -5
-17 6 -21 -9 -4 -20 6 -3 18 1 27 10 15 15 15 17 0 32 -11 11 -18 12 -22 5z"/>
<path d="M600 2485 c19 -24 64 -64 68 -60 4 3 -35 43 -64 65 -18 14 -18 14 -4
-5z"/>
<path d="M1195 2480 c-3 -5 3 -10 14 -10 13 0 21 -7 22 -17 0 -12 2 -13 6 -5
5 13 -14 42 -28 42 -4 0 -11 -4 -14 -10z"/>
<path d="M1383 2467 c-35 -39 -37 -53 -2 -20 18 18 31 35 28 38 -3 3 -15 -5
-26 -18z"/>
<path d="M1180 2451 c0 -13 28 -33 33 -23 3 4 -3 13 -14 20 -10 7 -19 8 -19 3z"/>
<path d="M1046 2394 c-9 -24 -7 -31 4 -14 9 13 11 13 20 0 11 -17 13 -10 4 14
-3 9 -10 16 -14 16 -4 0 -11 -7 -14 -16z"/>
<path d="M1285 2384 c-18 -16 -22 -22 -9 -15 18 9 53 42 43 41 -2 -1 -17 -12
-34 -26z"/>
<path d="M816 2326 c10 -8 21 -12 24 -10 5 6 -21 24 -34 24 -6 0 -1 -6 10 -14z"/>
<path d="M1130 2300 c-8 -5 -10 -10 -5 -10 6 0 17 5 25 10 8 5 11 10 5 10 -5
0 -17 -5 -25 -10z"/>
<path d="M928 2283 c6 -2 18 -2 25 0 6 3 1 5 -13 5 -14 0 -19 -2 -12 -5z"/>
<path d="M1078 2283 c7 -3 16 -2 19 1 4 3 -2 6 -13 5 -11 0 -14 -3 -6 -6z"/>
<path d="M945 2233 c28 -20 135 -16 135 6 0 3 -34 7 -76 7 -67 1 -74 -1 -59
-13z"/>
<path d="M985 2201 c3 -6 15 -11 26 -11 11 0 18 -3 16 -7 -3 -5 2 -14 10 -22
13 -11 14 -9 11 15 -3 25 -8 29 -37 32 -21 2 -31 0 -26 -7z"/>
<path d="M1010 1861 c0 -6 5 -13 10 -16 6 -3 10 1 10 9 0 9 -4 16 -10 16 -5 0
-10 -4 -10 -9z"/>
<path d="M955 1796 c-13 -15 -35 -54 -35 -61 0 -17 19 0 34 31 18 38 18 51 1
30z"/>
<path d="M876 1715 c-9 -14 -13 -25 -9 -25 10 0 36 40 30 46 -2 3 -12 -7 -21
-21z"/>
<path d="M905 1710 c-3 -5 -1 -10 4 -10 6 0 11 5 11 10 0 6 -2 10 -4 10 -3 0
-8 -4 -11 -10z"/>
<path d="M827 1693 c-3 -3 1 -12 9 -20 8 -9 18 -13 21 -10 3 3 -1 13 -10 21
-8 8 -17 12 -20 9z"/>
<path d="M800 1662 c0 -4 9 -13 20 -20 23 -14 26 -7 6 14 -16 15 -26 18 -26 6z"/>
<path d="M717 1653 c-3 -3 1 -12 9 -20 8 -9 18 -13 21 -10 3 3 -1 13 -10 21
-8 8 -17 12 -20 9z"/>
<path d="M780 1636 c0 -9 5 -16 10 -16 6 0 10 4 10 9 0 6 -4 13 -10 16 -5 3
-10 -1 -10 -9z"/>
<path d="M643 1610 c-10 -14 -9 -21 2 -30 11 -9 19 -6 40 16 14 15 23 30 20
33 -4 3 -10 -1 -15 -9 -6 -10 -12 -11 -22 -2 -11 8 -16 7 -25 -8z m27 -9 c0
-6 -4 -13 -10 -16 -5 -3 -10 1 -10 9 0 9 5 16 10 16 6 0 10 -4 10 -9z"/>
<path d="M790 1460 c-8 -5 -10 -10 -5 -10 6 0 17 5 25 10 8 5 11 10 5 10 -5 0
-17 -5 -25 -10z"/>
<path d="M1036 1467 c4 -40 2 -51 -13 -63 -16 -12 -15 -13 20 -14 l38 0 -17
33 c-10 17 -21 46 -25 62 -6 21 -7 16 -3 -18z"/>
<path d="M930 1366 c0 -2 18 -6 39 -8 22 -2 37 0 35 4 -5 8 -74 11 -74 4z"/>
<path d="M1053 1363 c9 -2 23 -2 30 0 6 3 -1 5 -18 5 -16 0 -22 -2 -12 -5z"/>
<path d="M735 1330 c3 -5 8 -10 11 -10 2 0 4 5 4 10 0 6 -5 10 -11 10 -5 0 -7
-4 -4 -10z"/>
<path d="M1078 1333 c7 -3 16 -2 19 1 4 3 -2 6 -13 5 -11 0 -14 -3 -6 -6z"/>
<path d="M644 1311 c4 -5 30 -14 59 -20 165 -32 217 -38 217 -22 0 4 -43 11
-96 15 -53 4 -104 10 -113 15 -28 14 -73 23 -67 12z"/>
<path d="M1258 1313 c7 -3 16 -2 19 1 4 3 -2 6 -13 5 -11 0 -14 -3 -6 -6z"/>
<path d="M1268 1283 c6 -2 18 -2 25 0 6 3 1 5 -13 5 -14 0 -19 -2 -12 -5z"/>
<path d="M802 4243 c2 -9 9 -18 16 -21 8 -2 10 2 5 14 -5 13 -3 15 7 9 9 -5
11 -4 6 3 -11 18 -38 14 -34 -5z"/>
<path d="M885 4139 c-10 -15 1 -23 20 -15 9 3 13 10 10 16 -8 13 -22 13 -30
-1z"/>
<path d="M754 4125 c-4 -9 -2 -21 4 -27 15 -15 44 -1 40 19 -4 23 -36 29 -44
8z"/>
<path d="M832 3994 c-41 -28 -22 -94 28 -94 39 0 65 36 51 72 -8 22 -29 38
-50 38 -3 0 -17 -7 -29 -16z m52 -20 c22 -21 3 -56 -27 -52 -25 3 -34 32 -17
53 16 19 25 19 44 -1z"/>
<path d="M680 3895 c-26 -31 13 -82 44 -56 19 16 21 42 4 59 -16 16 -33 15
-48 -3z m40 -26 c0 -24 -23 -21 -28 4 -2 10 3 17 12 17 10 0 16 -9 16 -21z"/>
<path d="M859 3814 c-10 -12 -9 -18 4 -31 13 -13 19 -14 31 -3 21 17 20 27 -3
39 -14 8 -22 7 -32 -5z m26 -14 c3 -5 1 -10 -4 -10 -6 0 -11 5 -11 10 0 6 2
10 4 10 3 0 8 -4 11 -10z"/>
<path d="M3455 3481 c-3 -5 -1 -12 5 -16 5 -3 10 1 10 9 0 18 -6 21 -15 7z"/>
<path d="M3472 3410 c0 -19 2 -27 5 -17 2 9 2 25 0 35 -3 9 -5 1 -5 -18z"/>
<path d="M3432 3365 c0 -16 2 -22 5 -12 2 9 2 23 0 30 -3 6 -5 -1 -5 -18z"/>
<path d="M2294 3319 c-10 -17 13 -36 27 -22 12 12 4 33 -11 33 -5 0 -12 -5
-16 -11z"/>
<path d="M3375 3270 c-3 -16 -2 -37 4 -47 8 -14 10 -8 11 30 0 54 -5 60 -15
17z"/>
<path d="M3440 3290 c0 -5 5 -10 11 -10 5 0 7 5 4 10 -3 6 -8 10 -11 10 -2 0
-4 -4 -4 -10z"/>
<path d="M2137 3284 c-16 -16 -7 -44 14 -44 15 0 20 5 17 22 -3 22 -19 33 -31
22z"/>
<path d="M3338 3210 c-4 -14 -8 -36 -8 -50 1 -22 2 -23 11 -7 6 9 9 32 7 50
-3 31 -3 31 -10 7z"/>
<path d="M3287 3121 c-20 -82 -21 -97 -3 -56 13 30 31 125 23 125 -2 0 -11
-31 -20 -69z"/>
<path d="M3321 3114 c0 -11 3 -14 6 -6 3 7 2 16 -1 19 -3 4 -6 -2 -5 -13z"/>
<path d="M3217 3033 c-2 -4 -10 -26 -17 -48 -7 -22 -16 -44 -20 -50 -4 -5 -10
-19 -14 -29 -5 -15 -4 -17 8 -7 16 13 61 129 53 137 -3 3 -7 2 -10 -3z"/>
<path d="M3151 2974 c0 -11 3 -14 6 -6 3 7 2 16 -1 19 -3 4 -6 -2 -5 -13z"/>
<path d="M3130 2920 c-6 -11 -9 -26 -7 -33 3 -7 10 1 16 17 14 35 7 47 -9 16z"/>
<path d="M3183 2865 c-7 -8 -13 -19 -13 -24 0 -6 -6 -8 -13 -6 -6 3 -21 -7
-32 -22 -11 -16 -78 -86 -150 -156 -133 -132 -152 -163 -27 -47 94 88 113 103
120 95 4 -4 -11 -22 -33 -40 -22 -19 -36 -37 -32 -41 4 -4 29 13 55 38 26 25
57 54 70 64 23 19 29 34 13 34 -4 0 -20 -11 -36 -26 -15 -14 -30 -22 -33 -19
-3 3 12 23 33 44 48 45 105 108 105 116 0 10 -15 4 -27 -10z"/>
<path d="M2994 2757 c-21 -34 -52 -77 -69 -96 l-30 -35 31 21 c17 12 36 28 42
35 16 19 73 130 69 134 -2 2 -21 -24 -43 -59z"/>
<path d="M1790 2795 c0 -15 18 -40 24 -34 3 3 -1 14 -9 25 -8 10 -14 15 -15 9z"/>
<path d="M1830 2773 c0 -5 11 -20 26 -34 22 -21 24 -21 18 -4 -6 16 0 14 24
-9 18 -17 32 -25 32 -20 0 15 -49 59 -57 51 -3 -4 -15 0 -25 10 -10 9 -18 12
-18 6z"/>
<path d="M1944 2721 c21 -23 26 -26 26 -11 0 5 -10 15 -22 21 -23 12 -23 12
-4 -10z"/>
<path d="M2846 2634 c-5 -14 -4 -15 9 -4 17 14 19 20 6 20 -5 0 -12 -7 -15
-16z"/>
<path d="M2692 2587 c-38 -39 -43 -61 -6 -26 24 22 50 59 41 59 -2 0 -17 -15
-35 -33z"/>
<path d="M2975 2600 c-3 -5 -2 -10 4 -10 5 0 13 5 16 10 3 6 2 10 -4 10 -5 0
-13 -4 -16 -10z"/>
<path d="M3017 2592 c-19 -21 -22 -32 -8 -32 5 0 16 11 25 25 19 29 7 34 -17
7z"/>
<path d="M2585 2535 c-16 -13 -26 -27 -22 -32 4 -4 22 7 40 25 37 37 25 42
-18 7z"/>
<path d="M2582 2474 c-7 -8 -8 -14 -3 -14 10 0 25 19 20 25 -2 1 -10 -3 -17
-11z"/>
<path d="M2510 2460 c0 -5 5 -10 10 -10 6 0 10 5 10 10 0 6 -4 10 -10 10 -5 0
-10 -4 -10 -10z"/>
<path d="M2380 2434 c0 -10 31 -36 37 -31 3 3 -2 13 -10 22 -16 15 -27 19 -27
9z"/>
<path d="M2250 2410 c0 -5 5 -10 10 -10 6 0 10 5 10 10 0 6 -4 10 -10 10 -5 0
-10 -4 -10 -10z"/>
<path d="M2300 2410 c0 -5 5 -10 10 -10 6 0 10 5 10 10 0 6 -4 10 -10 10 -5 0
-10 -4 -10 -10z"/>
<path d="M3296 2389 c-11 -10 -16 -22 -12 -26 4 -5 13 0 20 10 7 9 23 17 35
17 11 0 21 5 21 10 0 17 -44 10 -64 -11z"/>
<path d="M2330 2382 c0 -4 9 -13 20 -20 23 -14 26 -7 6 14 -16 15 -26 18 -26
6z"/>
<path d="M2375 2380 c3 -5 8 -10 11 -10 2 0 4 5 4 10 0 6 -5 10 -11 10 -5 0
-7 -4 -4 -10z"/>
<path d="M3200 2380 c-13 -8 -13 -10 2 -10 9 0 20 5 23 10 8 13 -5 13 -25 0z"/>
<path d="M2210 2370 c0 -5 5 -10 11 -10 5 0 7 5 4 10 -3 6 -8 10 -11 10 -2 0
-4 -4 -4 -10z"/>
<path d="M2027 2363 c-7 -10 32 -47 40 -39 3 2 -4 14 -15 26 -11 12 -22 17
-25 13z"/>
<path d="M2255 2360 c4 -6 11 -8 16 -5 14 9 11 15 -7 15 -8 0 -12 -5 -9 -10z"/>
<path d="M2305 2360 c3 -5 8 -10 11 -10 2 0 4 5 4 10 0 6 -5 10 -11 10 -5 0
-7 -4 -4 -10z"/>
<path d="M2235 2340 c3 -5 8 -10 11 -10 2 0 4 5 4 10 0 6 -5 10 -11 10 -5 0
-7 -4 -4 -10z"/>
<path d="M2280 2340 c0 -5 5 -10 10 -10 6 0 10 5 10 10 0 6 -4 10 -10 10 -5 0
-10 -4 -10 -10z"/>
<path d="M3265 2339 c-7 -10 41 -18 55 -9 7 4 -1 9 -19 12 -18 3 -34 1 -36 -3z"/>
<path d="M2155 2320 c3 -5 8 -10 11 -10 2 0 4 5 4 10 0 6 -5 10 -11 10 -5 0
-7 -4 -4 -10z"/>
<path d="M3340 2315 c-7 -8 -9 -15 -5 -15 4 0 2 -7 -5 -15 -7 -8 -9 -15 -5
-15 4 0 13 8 20 17 11 14 16 15 28 5 8 -7 17 -9 20 -5 3 4 -5 16 -18 25 -20
15 -25 16 -35 3z"/>
<path d="M3290 2300 c0 -5 5 -10 10 -10 6 0 10 5 10 10 0 6 -4 10 -10 10 -5 0
-10 -4 -10 -10z"/>
<path d="M3410 2280 c0 -5 5 -10 10 -10 6 0 10 5 10 10 0 6 -4 10 -10 10 -5 0
-10 -4 -10 -10z"/>
<path d="M3355 2270 c-4 -7 2 -14 14 -17 12 -3 21 -10 21 -15 0 -5 5 -8 11 -6
6 2 10 7 10 11 -1 4 -3 6 -5 5 -2 -2 -13 5 -24 15 -14 13 -22 15 -27 7z"/>
<path d="M3430 2224 c0 -8 5 -12 10 -9 6 4 8 11 5 16 -9 14 -15 11 -15 -7z"/>
<path d="M3375 2210 c3 -5 8 -10 11 -10 2 0 4 5 4 10 0 6 -5 10 -11 10 -5 0
-7 -4 -4 -10z"/>
<path d="M3410 2190 c0 -5 5 -10 10 -10 6 0 10 5 10 10 0 6 -4 10 -10 10 -5 0
-10 -4 -10 -10z"/>
<path d="M2021 2141 c-147 -91 -244 -231 -245 -354 -1 -34 4 -64 9 -66 6 -3
21 12 34 32 13 20 26 36 28 34 1 -2 -2 -30 -8 -63 -22 -118 7 -270 61 -319 28
-25 40 -10 40 48 l0 52 20 -25 c10 -14 20 -23 22 -20 8 9 -17 175 -26 175 -8
0 -26 -43 -43 -105 l-10 -35 -12 28 c-6 16 -11 61 -11 100 0 121 35 232 97
315 14 18 22 36 19 39 -6 6 -89 -66 -139 -120 -58 -63 -41 -1 28 103 44 66 98
118 188 179 26 17 47 34 47 36 0 15 -43 0 -99 -34z"/>
<path d="M3440 2086 c0 -9 70 -59 75 -54 3 3 -13 17 -35 32 -22 14 -40 24 -40
22z"/>
<path d="M3510 1993 c0 -13 29 -38 35 -31 3 3 -4 13 -15 23 -11 10 -20 13 -20
8z"/>
<path d="M3560 1951 c0 -5 5 -13 10 -16 6 -3 10 -2 10 4 0 5 -4 13 -10 16 -5
3 -10 2 -10 -4z"/>
<path d="M3540 1920 c0 -5 5 -10 11 -10 5 0 7 5 4 10 -3 6 -8 10 -11 10 -2 0
-4 -4 -4 -10z"/>
<path d="M1356 1873 c-6 -14 -5 -15 5 -6 7 7 10 15 7 18 -3 3 -9 -2 -12 -12z"/>
<path d="M1377 1863 c-4 -3 -7 -11 -7 -17 0 -6 5 -5 12 2 6 6 9 14 7 17 -3 3
-9 2 -12 -2z"/>
<path d="M3602 1830 c13 -20 28 -27 28 -12 0 4 -9 13 -20 20 -19 12 -20 11 -8
-8z"/>
<path d="M1350 1835 c0 -5 5 -17 10 -25 5 -8 10 -10 10 -5 0 6 -5 17 -10 25
-5 8 -10 11 -10 5z"/>
<path d="M1332 1805 c0 -11 -3 -29 -8 -40 -8 -19 -7 -19 10 -2 15 14 16 23 8
40 -9 21 -10 21 -10 2z"/>
<path d="M3570 1800 c0 -6 11 -28 25 -50 14 -22 25 -44 25 -48 0 -5 14 -26 30
-47 17 -21 30 -43 30 -50 0 -13 32 -50 65 -75 19 -14 19 -14 5 5 -8 11 -22 25
-30 31 -12 10 -12 14 0 30 8 11 10 16 6 12 -8 -7 -36 33 -40 57 -1 6 -12 25
-25 43 -12 18 -24 39 -25 47 -5 33 -66 75 -66 45z"/>
<path d="M1277 1732 c1 -8 3 -19 3 -25 0 -12 29 23 30 37 0 5 -6 3 -14 -3 -8
-7 -16 -8 -18 -4 -3 4 -3 2 -1 -5z"/>
<path d="M3660 1740 c0 -5 5 -10 11 -10 5 0 7 5 4 10 -3 6 -8 10 -11 10 -2 0
-4 -4 -4 -10z"/>
<path d="M3570 1681 c0 -6 5 -13 10 -16 10 -6 42 -70 44 -87 2 -15 88 -119 94
-114 3 3 -2 14 -11 24 -18 20 -23 37 -8 27 5 -3 12 -1 16 5 3 5 0 10 -7 10
-12 0 -58 58 -58 74 0 4 -14 25 -32 47 -30 38 -48 49 -48 30z"/>
<path d="M2970 1641 c0 -11 12 -62 26 -113 14 -51 26 -97 27 -103 2 -5 6 -15
9 -21 4 -6 -1 -26 -11 -45 -18 -33 -18 -35 -1 -35 11 0 15 6 12 18 -2 10 0 18
6 18 22 0 22 -62 0 -111 -13 -27 -26 -49 -30 -49 -5 0 -8 -4 -8 -10 0 -19 17
-10 28 15 10 22 14 24 32 13 11 -7 20 -18 20 -25 0 -17 -17 -17 -23 0 -4 9 -8
8 -16 -3 -6 -8 -10 -19 -10 -25 0 -5 3 -5 5 1 3 7 27 10 69 7 36 -3 65 -2 65
2 0 3 -18 50 -40 103 -39 97 -112 289 -132 350 -12 35 -28 43 -28 13z m100
-391 c0 -5 -4 -10 -10 -10 -5 0 -10 5 -10 10 0 6 5 10 10 10 6 0 10 -4 10 -10z"/>
<path d="M1210 1640 c0 -5 5 -10 10 -10 6 0 10 5 10 10 0 6 -4 10 -10 10 -5 0
-10 -4 -10 -10z"/>
<path d="M1280 1629 c0 -5 5 -7 10 -4 6 3 10 8 10 11 0 2 -4 4 -10 4 -5 0 -10
-5 -10 -11z"/>
<path d="M3739 1489 c12 -12 25 -19 28 -15 7 7 -23 36 -38 36 -7 0 -3 -9 10
-21z"/>
<path d="M3647 1479 c7 -7 15 -10 18 -7 3 3 -2 9 -12 12 -14 6 -15 5 -6 -5z"/>
<path d="M3735 1450 c3 -5 8 -10 11 -10 2 0 4 5 4 10 0 6 -5 10 -11 10 -5 0
-7 -4 -4 -10z"/>
<path d="M3760 1435 c0 -10 39 -44 44 -37 2 4 -7 15 -20 25 -13 10 -24 15 -24
12z"/>
<path d="M2996 1375 c-3 -8 -1 -15 4 -15 6 0 10 7 10 15 0 8 -2 15 -4 15 -2 0
-6 -7 -10 -15z"/>
<path d="M3715 1370 c3 -5 8 -10 11 -10 2 0 4 5 4 10 0 6 -5 10 -11 10 -5 0
-7 -4 -4 -10z"/>
<path d="M2975 1340 c-3 -5 -1 -10 4 -10 6 0 11 5 11 10 0 6 -2 10 -4 10 -3 0
-8 -4 -11 -10z"/>
<path d="M3035 1300 c-4 -6 -16 -8 -26 -5 -20 7 -20 6 -2 -14 12 -15 19 -18
22 -9 2 7 9 16 15 20 6 4 8 10 4 13 -3 4 -9 1 -13 -5z"/>
<path d="M3755 1260 c16 -16 31 -28 33 -25 7 7 -39 55 -52 55 -5 0 3 -13 19
-30z"/>
<path d="M2967 1266 c-4 -10 -1 -13 9 -9 15 6 19 23 5 23 -5 0 -11 -7 -14 -14z"/>
<path d="M3825 1240 c3 -5 8 -10 11 -10 2 0 4 5 4 10 0 6 -5 10 -11 10 -5 0
-7 -4 -4 -10z"/>
<path d="M3792 1214 c-11 -12 -11 -18 -2 -29 7 -8 17 -15 22 -15 6 0 4 7 -3
17 -11 13 -11 17 -1 20 13 5 17 23 5 23 -5 -1 -14 -8 -21 -16z"/>
<path d="M3735 1190 c10 -11 20 -20 23 -20 3 0 -3 9 -13 20 -10 11 -20 20 -23
20 -3 0 3 -9 13 -20z"/>
<path d="M950 1183 c1 -14 30 -47 36 -41 3 4 -4 16 -15 27 -12 12 -21 18 -21
14z"/>
<path d="M925 1160 c3 -5 8 -10 11 -10 2 0 4 5 4 10 0 6 -5 10 -11 10 -5 0 -7
-4 -4 -10z"/>
<path d="M900 1143 c1 -14 30 -47 36 -41 3 4 -4 16 -15 27 -12 12 -21 18 -21
14z"/>
<path d="M957 1115 c16 -22 33 -32 33 -20 0 7 -39 45 -45 45 -3 0 2 -11 12
-25z"/>
<path d="M2459 1107 c-107 -30 -231 -132 -279 -231 -76 -154 -76 -334 -1 -490
69 -143 156 -219 284 -247 147 -32 329 53 395 185 53 105 69 349 27 413 -16
23 -20 25 -73 19 -65 -8 -195 -25 -262 -35 l-45 -7 1 -83 c1 -59 5 -86 15 -92
8 -5 47 -9 87 -9 68 0 72 -1 72 -22 0 -27 -29 -73 -56 -92 -55 -38 -130 -29
-179 21 -86 89 -88 292 -4 370 48 44 96 56 195 49 l91 -7 42 43 c40 40 43 45
38 86 -6 52 -21 70 -90 107 -42 24 -66 29 -132 32 -45 1 -100 -3 -126 -10z"/>
<path d="M681 1086 c-54 -12 -98 -27 -104 -36 -7 -12 23 -79 117 -268 l126
-252 0 -164 c0 -91 4 -176 10 -190 7 -18 19 -27 46 -32 48 -9 174 10 185 28 5
7 9 88 9 181 l0 167 55 110 c30 60 70 147 89 193 19 46 49 113 65 149 45 97
43 105 -26 113 -32 3 -79 11 -105 16 -73 16 -82 10 -116 -89 -17 -48 -33 -98
-37 -112 -10 -38 -37 -100 -45 -100 -3 0 -24 51 -44 113 -44 127 -65 179 -80
189 -16 11 -39 8 -145 -16z"/>
<path d="M1605 1094 c-197 -38 -272 -136 -297 -386 -21 -204 6 -353 81 -447
88 -111 331 -149 486 -76 59 27 128 92 155 144 24 47 50 195 50 282 0 90 -33
266 -60 320 -55 109 -117 142 -320 173 -14 3 -56 -2 -95 -10z m165 -270 c22
-9 45 -25 50 -35 6 -10 10 -82 10 -160 0 -125 -2 -146 -20 -174 -26 -42 -75
-65 -138 -65 -45 0 -53 4 -81 35 -41 47 -46 70 -46 205 0 126 15 172 66 197
34 18 111 16 159 -3z"/>
<path d="M3065 1100 c-38 -3 -76 -9 -82 -13 -10 -6 -13 -91 -12 -370 1 -398 7
-529 27 -549 18 -18 197 -24 217 -8 12 10 15 44 15 171 l0 159 90 0 90 0 0
-160 c0 -190 -4 -184 126 -178 87 3 101 9 109 49 11 53 5 862 -6 876 -14 16
-195 18 -219 3 -12 -8 -15 -37 -13 -170 l1 -160 -94 0 -94 0 0 170 c0 128 -3
172 -12 174 -30 10 -78 12 -143 6z"/>
<path d="M3789 1100 c-24 -6 -24 -7 -32 -185 -11 -271 -5 -731 11 -747 7 -7
50 -14 107 -16 93 -4 95 -4 104 21 5 13 13 222 17 464 5 348 4 442 -6 448 -16
10 -171 22 -201 15z"/>
</g>
</svg>
